<svg height="280" viewBox="0 0 320 280" width="320" xmlns="http://www.w3.org/2000/svg"><g fill="none" fill-rule="evenodd"><path d="m306.880371 151.035934-71.184946-39.428449c-4.945808-2.739421-10.005553-5.267891-15.165601-7.578596l-33.452924-14.9804498c-4.536479-2.0314664-6.567192-7.3558378-4.535726-11.8923164.249105-.5562778.554075-1.0858117.910212-1.5804473l30.614662-42.5203631c5.178844-7.1928401 8.169417-15.728685 8.612027-24.58088698l.071925-1.4384914c.156588-3.13176411-2.255268-5.79750037-5.387033-5.95408857-1.627201-.0813601-3.210944.54023102-4.348406 1.7066727l-61.539 63.10687265c-4.140568 4.2460603-9.82007 6.6405432-15.750781 6.6405432h-8.726277c-3.313709 0-6-2.6862915-6-6 0-.306815.023534-.6131782.070394-.9163936l6.329073-40.9528259c.727353-4.7064023.507051-9.5106948-.64797-14.1307805l-.633028-2.53211222c-.401846-1.60738472-2.03065-2.58466681-3.638034-2.18282062-.405104.10127597-.784604.28600671-1.114215.54237084l-5.364723 4.172562c-5.865961 4.5624142-10.234947 10.7734505-12.546391 17.8361945l-10.8872553 33.2666135c-2.3201504 7.0893488-6.7851999 13.2829251-12.7779683 17.7246241l-14.1586803 10.4940806c-12.532743 9.2889742-22.4038085 21.7089253-28.623868 36.0150623l-10.4994477 24.148729c-.0042596.009797-.0085144.019597-.0127646.029398l-20.11883847 46.396505c-2.88579436 6.654995-4.37478633 13.831528-4.37478633 21.08527v8.950033c0 11.020741 5.30331428 21.368155 14.25 27.80349l1.1521833.828763c8.3330189 5.993926 18.8274408 8.147987 28.8478167 5.921237l2.0357942-.452399c8.9876107-1.997247 17.2999209-6.301305 24.1181508-12.488218l10.8033182-9.803011c3.8410211-3.485371 8.17285-6.388053 12.8569671-8.615226l42.4357697-20.17708 30 69.5 25.572833-6.001787c14.755878-3.463114 27.036014-13.641253 33.177167-27.498213l.039074-.088166c6.085699-13.731834 18.492181-23.627711 33.233346-26.508169l19.97758-3.903665c21.594845-4.219682 35.680198-25.146492 31.460516-46.741338-.271078-1.387281-.615794-2.759152-1.032685-4.109794z" fill="#000"/><path d="m15.5 195.535934 16.5 12.5-5 17 15.5-11 34.5 22-6.3955903 5.481935c-7.2386602 6.204565-16.1610288 10.112961-25.629606 11.226912l-2.4748037.291153 3-18.5-18.5 16.5-10.278296-9.690965c-4.6090395-4.345666-7.221704-10.399885-7.221704-16.734556v-1.574479c0-7.604658 1.367746-15.147323 4.0379196-22.267786z" fill="#f9f9f9"/><path d="m94.666749 107.258184.833251.27775c5.910597 1.970199 11.250978 5.353295 15.557514 9.855583l9.327585 9.751566c2.672262 2.793729 2.573794 7.22479-.219934 9.897052-.391633.374605-.825444.702463-1.292715.976985l-25.3364234 14.885148c-4.606985 2.706604-9.8532502 4.133666-15.1964715 4.133666h-13.8395551c-3.3137085 0-6-2.686291-6-6v-4.215952c0-4.502867.596336-8.985904 1.773455-13.33219l2.1306373-7.866968c1.6566976-6.117037 5.7639721-11.279436 11.3522048-14.268491l5.1528516-2.756176c4.8456641-2.591867 10.5443085-3.075737 15.7576003-1.337973z" fill="#f9f9f9"/><path d="m71.9787957 137.398997 28.9076613-10.892742c1.033624-.389482 1.555804-1.543136 1.166323-2.57676-.145727-.386736-.407682-.718831-.749845-.950619l-6.437921-4.361172c-4.1483629-2.810182-9.5248234-3.047737-13.9048691-.614379-4.5975301 2.554184-8.0872777 6.719314-9.7969976 11.693045l-1.7809433 5.180926c-.3590732 1.044576.1966371 2.182459 1.2412137 2.541532.4403272.151363.9196678.144349 1.355378-.019831z" fill="#000"/></g></svg>