<svg height="340" viewBox="0 0 340 340" width="340" xmlns="http://www.w3.org/2000/svg"><g fill="none" fill-rule="evenodd"><g stroke="#000" stroke-width="2"><path d="m227.849 267.331 4.185 10.326-.319714 28.343h-3.428572l-.363714-32.202 1.747687-1.973538zm5.151-75.331-.392 34.78-2.750921.772725c-.85899.241078-1.676048.558517-2.445864.942918l-.411215-36.495643z"/><path d="m190.081814 317.147732c-2.040838 2.551048-3.651286 5.418316-4.767738 8.48856l-.559469 1.53854c-.943698 2.595167-3.812515 3.933949-6.407683 2.990251-.041508-.015093-.082814-.030736-.123907-.046925l-25.896996-10.201847c-.979182-.385738-1.460262-1.492224-1.074524-2.471405.062541-.158759.146123-.308399.248503-.444906.889062-1.185416 2.453398-1.642476 3.840823-1.122191l4.275055 1.603145c.909155.340933 1.88747.456128 2.850949.335693l11.267937-1.408492c2.0918-.261476 3.995852-1.33803 5.298269-2.995651l7.154342-9.106042 8.812625 6.693538z"/><path d="m219.853037 241.983462c.071393.826597.218799 1.658348.446963 2.486851l2.748616 9.980696c.593129 2.153755 1.311051 4.27118 2.150128 6.341545l4.470943 11.031908-34.669687 39.175538-12.020313-9.13125z"/><path d="m69 182h204.000008v10h-204.000008z"/><path d="m154 178h48.000002v4h-48.000002z"/><path d="m83 192h8l-2.2857143 144.000006h-3.4285714z"/><path d="m109 192h6l-1.285714 114.000006h-3.428572z"/><path d="m153.599998 179.947655-15.126563-45.911721" stroke-linecap="square"/><path d="m331.200005 212.147656v-18.058139c0-36.297839-19.982817-69.647963-51.989761-86.767794l-6.210244-3.321728-13 16.5c1.935894 2.258543 3 5.135096 3 8.109773v16.390227l11.867791 19.420023c6.622278 10.836454 10.077611 23.310853 9.974599 36.010172l-.095048 11.717466z" fill="#000"/><path d="m254.841608 308 .323 20.376-8.031275 6.024c-1.384769 1.038577-3.069038 1.6-4.8 1.6h-6.893725c-1.10457 0-2-.895431-2-2 0-.131704.013009-.263086.038838-.392232l.021554-.107768c.290729-1.453643 1.567079-2.5 3.04951-2.5h1.45049c2.46208 0 4.723727-1.356989 5.882353-3.529412l4.509754-8.455788c1.014715-1.902591 1.095954-4.166662.22021-6.137087l-1.069709-2.405057zm5.62639 6.628759 1.705991 2.398339c1.572158 2.210193 1.095478 5.270802-1.074372 6.898189l-2.221009 1.665713.214871-13.580204c.337381.928107.799103 1.809024 1.374519 2.617963z"/><path d="m213 170-8.708487.791681c-1.51132.137392-3.034721-.039417-4.474398-.519309l-6.847952-2.282651c-1.889319-.629773-3.957446-.424988-5.686567.563081l-8.492043 4.852596c-1.438552.82203-1.938343 2.654594-1.116313 4.093147.034166.05979.07038.118386.108579.175683l.217181.325772h24l12 2z"/><path d="m253.458245 220.928656.493 31.071-6.151249.000344 6.678249 33.189656.362 22.81-9.240244 3.131598-20.401257-50.3387c-.839077-2.070365-1.556999-4.18779-2.150128-6.341545l-2.748616-9.980696c-2.012666-7.308336 2.258654-14.869269 9.557079-16.917588zm77.74176-8.781-.086154 17.166767c-.06297 12.547272-10.252283 22.685577-22.799714 22.685577l-48.266892-.000344.525-33.067 24.175097-6.785z" fill-rule="nonzero"/><path d="m209.939063 168.70156 32.366936-4.474584c4.094897-.566101 7.507411-3.419974 8.788939-7.350158l7.409542-22.723563c1.596725-4.896829 5.088705-8.94985 9.695523-11.253259 4.258068-2.129034 9.412542-1.166204 12.614912 2.356403l.585088.643597c3.591855 3.95104 4.287026 9.743546 1.73205 14.43228l-18.380865 33.731433c-2.31226 4.243318-6.758414 6.883946-11.590835 6.883946h-41.360353z" fill="#000"/><path d="m253 192h8l-2.285714 144.000006h-3.428572z" fill-rule="nonzero"/><path d="m177 324c2.666667.666667 4.666667-.333333 6-3" fill="#fff" stroke-linecap="round"/><path d="m225 89-4.645588-1.3936765c-3.519588-1.0558762-7.239126-1.2636483-10.854412-.6063235l-.17891.0325291c-1.187183.2158515-1.974603 1.3532357-1.758751 2.5404189.106033.5831836.444468 1.0982564.937661 1.427052 2.934227 1.9561513 6.381825 3 9.908327 3h7.591673z" fill="#000"/><path d="m252 252h-8" fill="#fff" stroke-linecap="round"/></g><path d="m249.540758 76.6588215c3.238992 2.0822095 6.012482 4.7820332 8.172665 7.9271078l.232886-.1706612c-1.959924 1.4699432-4.08841 2.7005219-6.340228 3.6655869-.50763.2175556-.742782.8054345-.525226 1.3130643s.805435.7427814 1.313064.5252257c2.262606-.9696883 4.408296-2.1910781 6.396617-3.6407819.462572.7843512.889197 1.5940489 1.277451 2.4250239l.22557.4949022 1.015743 2.2854207c2.195055 4.9388754 5.770883 9.1333071 10.291552 12.0814351l.455201.29064 1.403865.877416-13.157613 17.283312-7.395193-7.395193c-.360484-.360484-.927715-.388213-1.320006-.083188l-.094208.083188-.585786.585787c-1.394709 1.394709-3.261495 2.208807-5.224792 2.28673l-.310742.006163h-.171573c-2.111497 0-4.104903-.952713-5.430877-2.58347l-.169123-.21653-.136311-.180285c1.673846-.374002 3.134473-1.479982 3.930733-3.072501.246989-.493979.046765-1.094652-.447213-1.341641-.493979-.246989-1.094652-.046765-1.341641.447213-.670295 1.340589-2.058503 2.155423-3.538823 2.10405l-2.165999-2.889175-1.253532.626766c-.144645.072323-.295107.132373-.449801.179517-1.469766.44793-3.021224-.333162-3.549494-1.754546l-.056351-.166814-2.008783-6.59131c-.290885-.954465-.690551-1.871811-1.190813-2.7340582l-.220533-.3661089-1.519442-2.431108c-1.679362-2.686978-2.203034-5.9325366-1.463068-9.0034424l.087424-.3404557.396718-1.45463c.909351-3.3342876 3.107265-6.1641063 6.100552-7.871455l.32373-.1786069 3.089414-1.6476873c4.853335-2.5884455 10.727128-2.3493085 15.353986.6250999zm1.459242 15.3411785-3 1v6.8377223c0 1.8884817 1.208429 3.5650877 3 4.1622777 1.682073.560691 2.75704 2.19109 2.627185 3.942775l-.019417.195083-.53973 4.318282c.393168.118444.766819.319275 1.093808.602493l.15948.148474 5.776379 5.77638 10.445303-13.720531c-2.226855-1.447858-4.240389-3.177679-5.995349-5.137362-4.312921 1.147257-7.747172.831197-10.303057-.9487692l-.244602-.1768248v-5zm-15.554373-14.3655293-.317679.1639568-3.089413 1.6476873c-2.573495 1.3725304-4.492363 3.7084017-5.342594 6.4888289l-.093338.3227619-.396717 1.45463c-.687911 2.5223419-.336335 5.2101718.966755 7.4659349l.175357.2917306 1.519443 2.4311079c.610196.9763134 1.105668 2.019165 1.476974 3.10781l.151501.469306 2.008784 6.59131c.143148.469705.639964.734431 1.109669.591283l.070371-.024717.068052-.030528 1.253532-.626766c.813674-.406837 1.791601-.21121 2.387338.457882l.107089.130972.881438 1.175958 1.302224-.866561c.770786-.513858 1.72178-.670544 2.611472-.437717l.204115.060659.272085.090695c.080805.026935.164721.043436.249709.049102.5117.034113.959114-.322956 1.049834-.815351l.01447-.115915.443542-6.653124c.289848-4.3477339-1.253941-8.6115772-4.245-11.7632294l-.28464-.2921776 15.024073-4.6955515c-1.832805-2.3262751-4.047779-4.3451656-6.564831-5.96327-3.916894-2.5180039-8.863-2.7783359-13.013615-.7067078z" fill="#000" fill-rule="nonzero"/><path d="m225 94c11-.3333333 21.666667-3.6666667 32-10-1.017164-1.6952727-2.206764-3.5629824-3.568802-5.603129-2.622068-3.9275005-7.250282-6.0209931-11.931198-5.396871l-1.450261.1933681c-3.974969.5299959-7.764499 2.0069637-11.049739 4.3066319l-2.663275 1.8642926c-1.448273 1.0137912-2.253548 2.7170065-2.117961 4.4796421z" fill="#000" stroke="#000" stroke-width="2"/><path d="m248 94 .44168-1.3250385c.318962-.9568861 1.300539-1.5265177 2.289598-1.3287058l.85707.171414c1.402273.2804545 2.411652 1.5116989 2.411652 2.941742v4.0405883c0 .8284271-.671573 1.5-1.5 1.5s-1.5-.6715729-1.5-1.5v-.5" stroke="#000" stroke-linecap="round" stroke-width="2"/><path d="m234 98h1.145898c1.136316 0 2.175106-.6420071 2.683282-1.6583592l.17082-.3416408" fill="#fff" stroke="#000" stroke-linecap="round" stroke-width="2" transform="matrix(1 0 0 -1 0 194)"/><path d="m235 74-3-7" fill="#fff" stroke="#000" stroke-linecap="round" stroke-width="2"/><path d="m232 67h10.122967c.650491 0 1.235447-.3960344 1.477033-1 .247211-.618028.143003-1.3212466-.272817-1.8410214l-.127183-.1589786c-.476394-.5954928-1.283494-.814041-1.995266-.5402825z" fill="#000" stroke="#000" stroke-linecap="round" stroke-linejoin="round" stroke-width="2"/><path d="m221 71h10.122967c.650491 0 1.235447-.3960344 1.477033-1 .247211-.618028.143003-1.3212466-.272817-1.8410214l-.127183-.1589786c-.476394-.5954928-1.283494-.814041-1.995266-.5402825z" fill="#000" stroke="#000" stroke-linecap="round" stroke-linejoin="round" stroke-width="2" transform="matrix(-1 0 0 -1 454 138)"/><circle cx="234.5" cy="100.5" fill="#000" r="1.5"/><path d="m1 1h200v150h-200z" stroke="#000" stroke-width="2"/><path d="m41 1v150" fill="#fff" stroke="#000" stroke-width="2"/><path d="m81 1v150" fill="#fff" stroke="#000" stroke-width="2"/><path d="m121 1v150" fill="#fff" stroke="#000" stroke-width="2"/><path d="m161 1v150" fill="#fff" stroke="#000" stroke-width="2"/><path d="m1 51h200" stroke="#000" stroke-linecap="square" stroke-width="2"/><path d="m1 101h200" stroke="#000" stroke-linecap="square" stroke-width="2"/><g transform="translate(48 76)"><path d="m0 8 .10726109 1.2871331c.50460468 6.0552562 5.56649388 10.7128669 11.64273891 10.7128669h1.75c4.9705627 0 9-4.0294373 9-9v-1.5h4.5l-3-3.5-.4429327-2.65759595c-.3214586-1.92875188-1.990219-3.34240405-3.9455757-3.34240405h-.6114916c-2.209139 0-4 1.790861-4 4s-1.790861 4-4 4z" stroke="#000" stroke-linecap="square" stroke-linejoin="round" stroke-width="2"/><circle cx="20" cy="4" fill="#000" r="1"/><g fill="#fff" stroke="#000" stroke-width="2"><path d="m11 20v6"/><path d="m15 20v6"/></g></g></g></svg>