<svg height="280" viewBox="0 0 280 280" width="280" xmlns="http://www.w3.org/2000/svg"><g fill="none" fill-rule="evenodd"><g stroke="#000" stroke-width="2"><path d="m187.640176 220.038 3.446 8.503-.262647 23.341353h-2.823529l-.299824-26.519353 1.438978-1.624149-1.498978-3.698851zm4.242177-62.038-.323177 28.642-2.265111.636715c-.707333.198514-1.380141.459902-2.014051.776426l-.338838-30.055141z"/><path d="m157.010769 260.58948c-1.99379 2.492238-3.567113 5.293408-4.657828 8.292873-.885854 2.436098-3.578828 3.692819-6.014926 2.806966-.038964-.014169-.077738-.028853-.116312-.044049l-20.776745-8.184778c-.806384-.317667-1.202569-1.228891-.884902-2.035276.051505-.130742.120337-.253975.20465-.366392.732169-.976226 2.020445-1.352628 3.163031-.924158l3.276377 1.228641c.909154.340933 1.887469.456127 2.850949.335693l8.444407-1.055551c2.0918-.261475 3.995852-1.33803 5.298269-2.995651l5.533687-7.042476 7.256809 5.512325z"/><path d="m181.055482 199.280955c.058809.680576.18019 1.365394.368048 2.047538l2.106427 7.648803c.59313 2.153754 1.311052 4.271179 2.150129 6.341544l3.459068 8.537658-28.550919 32.261149-9.899081-7.519853z"/><path d="m57 150h168.000007v8h-168.000007z"/><path d="m127 146h39v4h-39z"/><path d="m68 158h6.5882353l-1.8823529 118h-2.8235295z"/><path d="m89 158h4.9411765l-1.0588236 93.000005h-2.8235294z"/><path d="m126.494116 148.192186-12.45717-37.809652" stroke-linecap="square"/><path d="m272.752945 174.709834v-8.732995c0-33.549801-18.860104-64.250901-48.786606-79.4164447l-9.715088 12.5443268c1.514829 1.9529729 2.336984 4.3543579 2.336984 6.8259589v13.481085l7.985439 13.067081c6.622278 10.836455 10.07761 23.310853 9.974598 36.010172l-.050461 6.220816z" fill="#000"/><path d="m209.868383 253.648059.266 16.78-6.236344 4.677823c-1.384769 1.038577-3.069038 1.6-4.8 1.6h-5.11609c-.950624 0-1.721257-.770633-1.721257-1.721257 0-.113348.011196-.226419.033426-.337566.239423-1.197118 1.290535-2.058824 2.511361-2.058824h1.194521c2.027595 0 3.890128-1.11752 4.844291-2.906574l3.430169-6.431567c1.014715-1.902591 1.095954-4.166662.22021-6.137087l-.635287-1.429526zm4.877503 5.799355 1.056687 1.485526c1.353365 1.902605.943023 4.537275-.924853 5.938182l-1.683337 1.261937.178442-11.2996c.337253.926635.798474 1.806181 1.373061 2.613955z"/><path d="m175.411765 139.341797-6.76731.61521c-1.511321.137393-3.034722-.039417-4.474399-.519309l-4.730305-1.576768c-1.889318-.629773-3.957446-.424988-5.686567.563081l-6.233953 3.562259c-1.329008.759433-1.790739 2.452449-1.031306 3.781457.031564.055237.065021.109371.10031.162305h19.764706l9.882353 1.647059z"/><path d="m208.730614 181.940834.406 25.588-5.066029.000578 5.500029 27.333422.298 18.784-7.609789 2.578904-16.578739-40.906898c-.839077-2.070365-1.556999-4.18779-2.150129-6.341544l-2.106427-7.648803c-1.65749-6.01863 1.860068-12.245281 7.870535-13.932131zm64.022331-7.231-.050859 10.134001c-.06297 12.547272-10.252283 22.685577-22.799713 22.685577l-35.745759-.000578.432-27.232 19.909197-5.587z" fill-rule="nonzero"/><path d="m172.890993 138.930697 25.473829-3.521643c4.094898-.566101 7.507412-3.419975 8.788939-7.350159l5.732282-17.579743c1.314949-4.032683 4.190697-7.370465 7.984547-9.26739 3.506645-1.7533228 7.751506-.960404 10.388752 1.940567l.481837.530021c2.957998 3.253798 3.530492 8.024096 1.426394 11.885407l-14.475209 26.564013c-2.31226 4.243318-6.758414 6.883946-11.590835 6.883946h-32.677999z" fill="#000"/><path d="m208.352941 158.117647h6.588235l-1.882352 118h-2.82353z" fill-rule="nonzero"/><path d="m145.764706 266.823529c2.196078.54902 3.843137-.274509 4.941176-2.470588" fill="#fff" stroke-linecap="round"/><path d="m185.294118 73.2941176-3.825779-1.1477335c-2.898484-.8695452-5.961633-1.0406516-8.938927-.4993253l-.147338.0267887c-.97768.17776-1.626143 1.1144294-1.448383 2.0921097.087321.4802689.366032.9044464.772191 1.1752193 2.416423 1.6109481 5.255621 2.4705882 8.159799 2.4705882h6.251966z" fill="#000"/><path d="m207.529412 207.529412h-6.588236" fill="#fff" stroke-linecap="round"/></g><path d="m207.205008 72.5371747c-.418048.1791634-.611703.663299-.432539 1.0813471.179163.418048.663299.6117023 1.081347.4325388 1.863328-.798569 3.630371-1.8044227 5.267815-2.9983007.372765.6320679.717339 1.2844488 1.031662 1.9536621l.206107.4509926.836494 1.8821112c1.801237 4.052783 4.731472 7.4968658 8.435538 9.9233653l.414729.2654027 1.156124.7225776-10.835681 14.2333166-6.090159-6.0901595c-.294807-.2948075-.757521-.3193748-1.080313-.0737019l-.084333.0737019-.482413.4824124c-1.137916 1.137916-2.657412 1.8065224-4.257739 1.8812446l-.300936.0070204h-.141295c-1.728079 0-3.360112-.7748714-4.452076-2.1026038l-.159689-.2032786-.11178-.1485765c1.378262-.3081049 2.58093-1.2188528 3.236598-2.5301887.203403-.4068059.038513-.9014778-.368293-1.1048807s-.901478-.0385123-1.104881.3682936c-.552006 1.1040133-1.695235 1.775053-2.914322 1.7327465l-1.783766-2.3793203-1.032321.5161603c-.119119.0595597-.243029.1090127-.370424.1478378-1.204576.3671096-2.475783-.2682077-2.91678-1.4280746l-.052739-.1542224-1.654293-5.4281375c-.234663-.7699887-.555292-1.5106433-.955549-2.2080462l-.206735-.3450326-1.251306-2.002089c-1.374466-2.1991461-1.808902-4.8526382-1.216045-7.3677503l.083163-.3272246.326708-1.1979306c.746896-2.7386196 2.549355-5.0639895 5.004434-6.4711962l.286152-.1582665 2.544223-1.3569189c3.996864-2.1316611 8.834105-1.9347247 12.644458.5147881 2.667247 1.7146586 4.951184 3.9378803 6.730113 6.5277438l.192106-.1400819c-1.614055 1.2105414-3.366926 2.2239592-5.221364 3.0187186zm-.499126 3.2275312-2.470588.8235294v5.6310655c0 1.55522.995177 2.9359543 2.470588 3.427758 1.376686.4588953 2.259555 1.7878841 2.165431 3.220289l-.017857.1873589-.44485 3.5561214c.314904.0948137.614616.2537998.878569.4769582l.153917.1415958 4.757018 4.7570186 8.602014-11.2992604c-1.833826-1.1923185-3.491986-2.6168272-4.937218-4.2306251-3.539508.9415699-6.361022.6862541-8.463879-.7668323l-.222556-.1602711v-4.1176471zm-12.763043-11.8534769-.308058.1580643-2.544223 1.3569188c-2.109159 1.124885-3.684386 3.0354995-4.389623 5.3107416l-.087026.2988039-.326709 1.1979305c-.564276 2.0690124-.279257 4.2732338.783463 6.1263724l.1571.2622933 1.251306 2.0020889c.492259.7876142.893857 1.6278108 1.197483 2.5045309l.143615.4413294 1.654292 5.4281374c.117887.3868159.527029.6048259.913845.486939l.057952-.0203551.056043-.0251408 1.032321-.5161603c.667466-.3337335 1.469146-.1751889 1.960279.3706403l.093955.1142986.726419.9684361 1.071891-.7136387c.631009-.4206728 1.408673-.5506753 2.137612-.3638424l.181106.0533241c.088185.0293948.172101.0458957.257088.0515616.5117.0341133.959114-.3229562 1.049834-.8153509l.01447-.1159153.350076-5.2511371c.237953-3.5692973-1.024725-7.0699398-3.472824-9.6630056l-.257467-.2649763 12.373277-3.8662762c-1.509468-1.9160293-3.333743-3.5788698-5.406842-4.9115768-3.211083-2.0642672-7.262097-2.286063-10.670655-.6050356z" fill="#000" fill-rule="nonzero"/><path d="m185.294118 77.4117647c9.058823-.2745098 17.843137-3.0196078 26.352941-8.2352941-.837664-1.3961069-1.817335-2.9342208-2.939013-4.6143415-2.159351-3.2344122-5.970821-4.958465-9.825693-4.444482l-1.194332.1592443c-3.273505.4364672-6.394294 1.6527936-9.099786 3.546638l-1.780922 1.2466455c-1.448273 1.0137913-2.253548 2.7170065-2.117961 4.4796421z" fill="#000" stroke="#000" stroke-width="2"/><path d="m204.235294 77.4117647.265209-.7956267c.318962-.9568862 1.30054-1.5265177 2.289599-1.3287059l.327545.0655091c1.197118.2394236 2.058824 1.2905352 2.058824 2.511361v3.2533449c0 .6822341-.55306 1.2352941-1.235295 1.2352941-.682234 0-1.235294-.55306-1.235294-1.2352941v-.4117647" stroke="#000" stroke-linecap="round" stroke-width="2"/><path d="m192.705882 80.7058824h.629121c1.128573 0 2.160284-.6376324 2.664997-1.6470589" fill="#fff" stroke="#000" stroke-linecap="round" stroke-width="2" transform="matrix(1 0 0 -1 0 159.764706)"/><path d="m193.529412 60.9411765-2.470588-5.7647059" fill="#fff" stroke="#000" stroke-linecap="round" stroke-width="2"/><path d="m191.058824 55.1764706h8.336561c.535698 0 1.017426-.326146 1.21638-.8235294.203585-.5089643.117767-1.0880855-.224673-1.5161353l-.104739-.1309235c-.392325-.4904059-1.056995-.6703867-1.64316-.4449386z" fill="#000" stroke="#000" stroke-linecap="round" stroke-linejoin="round" stroke-width="2"/><path d="m182 58.4705882h8.336561c.535698 0 1.017427-.326146 1.21638-.8235294.203586-.5089642.117767-1.0880854-.224673-1.5161353l-.104739-.1309235c-.392324-.4904058-1.056994-.6703867-1.643159-.4449385z" fill="#000" stroke="#000" stroke-linecap="round" stroke-linejoin="round" stroke-width="2" transform="matrix(-1 0 0 -1 373.882352 113.647058)"/><circle cx="193.117647" cy="82.764706" fill="#000" r="1.235294"/><path d="m1 1h165v123h-165z" stroke="#000" stroke-width="2"/><path d="m34 1v123" fill="#fff" stroke="#000" stroke-width="2"/><path d="m67 1v123" fill="#fff" stroke="#000" stroke-width="2"/><path d="m100 1v123" fill="#fff" stroke="#000" stroke-width="2"/><path d="m133 1v123" fill="#fff" stroke="#000" stroke-width="2"/><path d="m0 42h165" stroke="#000" stroke-linecap="square" stroke-width="2"/><path d="m0 83h165" stroke="#000" stroke-linecap="square" stroke-width="2"/><g transform="translate(39.529412 62.588235)"><path d="m0 6.58823529.08833266 1.05999197c.4155568 4.98668154 4.58417144 8.82236094 9.58813793 8.82236094h.20588235c4.77563876 0 8.64705886-3.8714201 8.64705886-8.64705879h3.7058823l-2.4705882-2.88235294-.2819798-1.69187884c-.3125041-1.87502433-1.9347793-3.24929763-3.8356673-3.24929763-1.8192909 0-3.2941176 1.47482671-3.2941176 3.29411765s-1.4748267 3.29411764-3.29411767 3.29411764z" stroke="#000" stroke-linecap="square" stroke-linejoin="round" stroke-width="2"/><circle cx="16.470588" cy="3.294118" fill="#000" r="1"/><g fill="#fff" stroke="#000" stroke-width="2"><path d="m9.05882353 16.4705882v4.9411765"/><path d="m12.3529412 16.4705882v4.9411765"/></g></g></g></svg>