<svg height="50" viewBox="0 0 58 50" width="58" xmlns="http://www.w3.org/2000/svg"><g fill="none" fill-rule="evenodd"><path d="m24.4529547 14.389891-6.602955-4.2258912-2.5778666-1.95917856c-.3205648-.24362927-.3939347-.69575509-.1668626-1.02825361l2.6182154-3.83381528c.3319523-.48607312.5484697-1.04155952.6330265-1.62406238l.1381372-.95161147c.0199934-.13773218-.0754528-.26559402-.213185-.2855874-.0797992-.01158376-.1603229.01571997-.2166192.07345059l-5.5088985 5.64925257c-.3478077.35666906-.8248858.55780562-1.3230656.55780562h-.7330072c-.2783516 0-.50400003-.22564848-.50400003-.50399999 0-.02577246.00197684-.05150696.00591313-.07697706l.5316421-3.44003731c.0610977-.3953378.0425923-.79889836-.0544295-1.18698555l-.0531743-.21269742c-.0337551-.13502032-.1705746-.21711201-.3055949-.18335693-.0340287.00850718-.0659067.02402456-.0935941.04555915l-.45063666.3504952c-.49274073.38324279-.85973557.90496983-1.05389682 1.49824032l-.91452944 2.79439548c-.19489263.59550529-.56995678 1.11576569-1.07334932 1.4888684l-1.18932913.88150276c-1.05275039.78027382-1.88191987 1.82354967-2.40440486 3.02526517l-.88195359 2.0284932c-.00035781.000823-.00071522.0016461-.00107223.0024694l-1.6899824 3.8973064c-.24240673.5590196-.36748205 1.1618483-.36748205 1.7711626v.7518028c0 .9257422.44547839 1.794925 1.19699998 2.3354931l.0967834.0696162c.69997357.5034897 1.581505.6844308 2.42321656.4973838l.1710067-.0380015c.75495929-.1677687 1.45319334-.5293097 2.02592464-1.0490103l1.01980028-.9253743c.24871352-.2256845.52216551-.4225013.81513741-.5866943l2.27617033-1.2756559c.566575-.3175311 1.2832846-.1156411 1.6008156.4509339.014221.0253748.0274957.0512684.0397966.0776275l2.1042004 4.509001c.1997427.42802.4352308.8384301.7039603 1.2268664l3.0319898 4.3826035c.7777055 1.1241379 1.2693236 2.4210861 1.4321874 3.7782844l.6620113 5.5167615c.0651768.5431397.183254 1.0786139.3525497 1.5987944l.0331441.1018391c.1911854.5874393.3154384 1.1945853.3703985 1.8099031l.3505976 3.9251948c.0818062.9158804-.1018486 1.8359455-.529014 2.6502297l-.6896769 1.3146965h2.3939999l.5495768-1.7120393c.1833418-.5711456.2577276-1.1716569.2192854-1.7702752l-.2986907-4.65118c-.0350986-.5465514-.0101121-1.095304.0745108-1.6364041l.000437-.0027938c.084386-.5395855.1159477-1.0861147.094237-1.6318272l-.2013645-5.0614132.374545 5.1117096c.0439978.6004726.1776776 1.19097.3965914 1.7518442.2186874.5602944.3446339 1.1524739.3728906 1.7532696l.2507319 5.3310725-.6567507 2.5180369h1.806l.9203277-2.5470796.1648855-5.6348047c.0083582-.2856344.0315836-.5706399.0695817-.8538589l.1052425-.7844241c.0479679-.3575287.0723833-.7178238.0730881-1.0785553l.0094424-4.8323652c.0006345-.3247428.264405-.5874845.5891478-.58685.0428763.0000838.085615.0048571.1274534.0142347l2.9388308.6587034c2.4039252.5388108 4.8994308.5188422 7.2944258-.0583688l7.2183707-1.7396793c.4733108-.1140713.9605107.1264583 1.1577497.5715787l2.263317 5.1077559c.3324097.7501678.5041365 1.5616022.5041365 2.3821191v4.8478064c0 .8867639-.1651874 1.7657688-.4871094 2.5920353l-.7728906 1.9837524h1.764l1.2191933-2.689397c.138462-.3054309.2315722-.6294473.2763825-.9617902l.8142063-6.0386974c.0836093-.6201016.0677055-1.2495739-.047111-1.8646623l-.9072645-4.8603456c-.0599473-.3211463.0372779-.6515967.2615933-.8891072.1108088-.1173269.2957492-.1226109.4130761-.0118021.0389611.0367965.0670526.0835988.0812021.1352876l1.862308 6.8031252c.0386822.1413086.0539995.2879913.0453455.4342429l-.3265264 5.5182974c-.0531251.8978139-.2753973 1.777508-.6551223 2.5928l-.853283 1.8320487h1.848l1.0358786-2.1005316c.3156307-.6400288.5335272-1.3237597.6464249-2.028397l1.0190469-6.3602583c.0190138-.1186724.0220238-.2393589.0089494-.3588316l-1.0378162-9.4834931c-.105871-.9674414-.0128449-1.9463138.2733645-2.8764943l.5741519-1.8659936v6.0104154c0 .7772943.1078879 1.550827.3205757 2.2984568l.6674756 2.3462779c.0634702.2231072.2957869.3525185.5188941.2890484.1387568-.0394739.2475444-.1473993.2881211-.2858376l.5508101-1.8792346c.3090781-1.0545015.4082515-2.1594009.2919005-3.252088l-.7897772-7.4170383-.2494461-3.8323994c-.1311321-2.0146656-1.3470991-3.7987747-3.1743158-4.6574668l-.881238-.4141336c-2.473916-1.1626054-5.2908038-1.3675805-7.9069655-.5753626l-3.3909247 1.0268294c-2.9532025.8942796-6.0535122 1.1987188-9.1242586.8959691l-6.3941894-.630413c-.5802047-.0572033-1.138647-.2508538-1.6297062-.5651317z" fill="#000"/><path d="m1.13399998 17.0939997 1.38599998 1.05-.42 1.428 1.30199998-.924 2.89799995 1.848-.53722957.4604824c-.60804745.5211836-1.3575264.8494888-2.15288687.9430606l-.20788351.0244569.252-1.5539999-1.55399998 1.3859999-.86337684-.814041c-.38715932-.3650359-.60662313-.8735903-.60662313-1.4057027v-.1322562c0-.6387913.11489066-1.2723751.33918524-1.870494z" fill="#fff"/><path d="m7.78400678 9.67866881.06999309.02333102c.49649015.16549672.94508213.44967677 1.30683113.82786897l.78351717.8191315c.22447003.2346732.21619873.6068823-.01847449.8313524-.03289715.0314668-.06933725.0590068-.10858808.0820667l-2.1282595 1.2503525c-.38698673.2273547-.827673.3472279-1.27650358.3472279h-1.16252261c-.27835151 0-.50399999-.2256485-.50399999-.504v-.35414c0-.3782408.05009222-.7548159.14897022-1.1199039l.17897352-.6608253c.1391626-.5138312.48417365-.9474726.95358519-1.1985532l.43283953-.23151885c.40703578-.21771681.8857219-.25836191 1.3236384-.11238974z" fill="#fff"/><path d="m5.87821874 12.210497 2.42824351-.9149903c.08682439-.0327164.13068755-.1296234.09797112-.2164478-.01224104-.0324858-.03424529-.0603818-.06298698-.079852l-.54078534-.3663384c-.34846249-.2360553-.80008516-.2560099-1.16800899-.0516078-.38619253.2145514-.67933132.5644223-.82294778.9822157l-.14959924.4351978c-.03016214.0877444.01651752.1833266.10426195.2134887.03698749.0127145.07725209.0121253.11385175-.0016659z" fill="#000"/></g></svg>