<svg height="450" viewBox="0 0 600 450" width="600" xmlns="http://www.w3.org/2000/svg"><g fill="none" fill-rule="evenodd"><g transform="translate(20 201.172297)"><path d="m89.8490026 178.316311 5.9046865-12.614558c1.9765108-4.222546 5.6004669-7.448039 10.0237169-8.921586l9.015363-3.003347c.683231-.122006 1.387629-.003345 1.993182.335764l5.69024 3.186535c3.628672 2.032056 8.070704 1.951423 11.623236-.210988l4.867549-2.962856c.571823-.348066 1.243635-.494878 1.908525-.417072l2.457149.240741c7.65904.750401 14.208152 5.828743 16.842005 13.059706l5.674772 15.579481" stroke="#222" stroke-linecap="round" stroke-linejoin="round" stroke-width="2.5"/><path d="m117.980486 135.090954s2.879177 3.3264 8.5536 3.3264 8.5536-3.3264 8.5536-3.3264" stroke="#222" stroke-linecap="round" stroke-width="2.5" transform="matrix(-.9961947 -.08715574 -.08715574 .9961947 264.505581 11.548563)"/><path d="m129.860356 91.3284446c13.990085 1.2239738 18.979901 13.6938644 19.641868 25.6646084 1.888944.576798 3.183446 2.413212 3.004325 4.460573-.162587 1.858378-1.49068 3.334764-3.201048 3.771947-1.897127 17.344309-16.917856 24.78738-24.497947 23.856662-7.682278-.943265-21.668287-8.588849-19.930092-28.456508l.006332-.076695c-1.728316-.670442-2.881247-2.420744-2.711551-4.360378.189458-2.165518 1.961512-3.812343 4.07687-3.900586 2.860977-11.560685 9.904943-22.1587693 23.611243-20.9596234z" stroke="#222" stroke-linecap="round" stroke-width="2.5" transform="matrix(.99254615 -.12186934 .12186934 .99254615 -13.699229 16.414703)"/><path d="m126.906612 123.725706-1.284192 5.457816c-.284873 1.21071.482888 2.192183 1.734192 2.192183h2.25" stroke="#222" stroke-linecap="round" stroke-width="2.5" transform="matrix(-1 0 0 1 254.713224 0)"/><ellipse cx="118.60009" cy="120.169132" rx="6.444833" ry="6.103235" stroke="#222" stroke-linecap="round" stroke-width="2.5"/><ellipse cx="136.60009" cy="120.169132" rx="6.444833" ry="6.103235" stroke="#222" stroke-linecap="round" stroke-width="2.5"/><circle cx="118.60009" cy="118.374661" fill="#222" r="1.516176"/><circle cx="136.60009" cy="118.374661" fill="#222" r="1.516176"/><path d="m131.301087 86.3410605c1.561446 0 2.825377.4940068 3.791791 1.4820204.603244.61672 1.389707 1.0218873 2.242064 1.1550547l1.027425.1605189c1.602336.25034 2.992985 1.2412013 3.75283 2.6739568l.247088.4659051c.785336 1.4808381 2.260448 2.4696349 3.928621 2.6334408 2.6702.2621997 4.137213 1.5889777 4.40104 3.9803339.078551.7119963-.057196 1.5638109-.407239 2.5554439-.293542.831535-.088251 1.757639.529173 2.387245l.301175.307118c.479063.488514.67515 1.188024.51982 1.854372l-.142711.612214c-.23934 1.026744-.203918 2.098427.1027 3.107125.19295.634761.289426 1.21728.289426 1.747554 0 2.11249-1.712511 3.825-3.825 3.825-2.96495 0-5.445072-2.251769-5.730545-5.202944l-.328195-3.392486c-.175022-1.809172-1.783529-3.133912-3.592701-2.95889-.220882.021368-.439035.065022-.651131.130295l-6.458678 1.987676c-2.283399.702722-4.716289.762623-7.031504.173124l-7.428733-1.891498c-1.559968-.397198-3.146564.545413-3.543762 2.105381-.059847.235046-.090122.476644-.090122.71919v2.152529c-.000007 3.846644-3.118329 6.964966-6.964973 6.964966-2.964481 0-5.367667-2.403187-5.367667-5.367667 0-.712616.249036-1.450558.747109-2.213825l-.000003-.000002c1.25915-1.929573 1.625221-4.308347 1.004478-6.527218-.129635-.463389-.194453-.893111-.194453-1.289167 0-3.8441976 3.116338-6.9605358 6.960536-6.9605358-.024499 0-.048631.0002659-.072397.0007978v.000004c1.894336-.0423894 3.657334-.9771071 4.755448-2.5212741 1.962939-2.7602839 3.994325-4.1404258 6.094158-4.1404258.538129 0 1.155853.1069035 1.853174.3207107l.000001-.0000023c1.984375.6084335 4.118056.5122991 6.039674-.2721216 1.247598-.5092796 2.328292-.7639194 3.242083-.7639194z" fill="#222"/><path d="m143.106612 119.675706h3.15l2.25-5.4" stroke="#222" stroke-width="2.5"/><path d="m112.056613 120.125706h-3.6l-3.15-5.85" stroke="#222" stroke-width="2.5"/><path d="m125.106612 120.125706c1.564056-1.30338 3.835945-1.30338 5.4 0" stroke="#222" stroke-width="2.5"/><path d="m119.849427 147.088131-1 8" stroke="#222" stroke-width="2.5"/><path d="m135.849427 146.088131 2 9" stroke="#222" stroke-width="2.5"/><path d="m1.68324816 80.8610605c.48-.2 1.4-.2 1.68.5.24.52-.22 1.68-.32 2.48-.22 1.74-.34 4.1-.54 5.74-.12.84.06 2.16-.26 2.82-.22.44-.98.98-1.52.9-1.04-.16-.7-1.86-.54-2.76.41999999-2.3.44-4.6.7-6.76.12-1.04-.02-2.58.8-2.92z" fill="#222" fill-rule="nonzero"/><path d="m45.2932482 22.8077026c1.04.34 3.68-.54 4.56.14.38.52.1 1.84-.6 2.06-1.34.2-3.8.16-5.48.12-.76-.02-1.38-.3-1.42-.74-.08-1 .88-2.1 1.24-2.7.92-1.52 1.54-2.2 2.28-3.76.34-.7 1.08-1.6.68-2.52-.44-1-1.6.18-2.14.64-.62.52-1.18 1.54-1.94 1.58-.66.04-.98-.46-.96-1.04.04-.9 1.94-2.54 2.74-2.98.92-.8 3.78-.98 4.32.64.36 2.06-.6 3.86-1.52 5.42-.52.96-1.36 1.92-1.76 3.14z" fill="#222" fill-rule="nonzero"/><path d="m124.199427 38.6077026c1.32-.16 3.56.64 3.7 2.04.38 1.24-1.66 3.06-2.14 3.22 0 0 1.7.68 2.02 1.8.54 1.84-.48 3.4-1.28 4.2-.64.64-1.88 1.38-3.14 1.56-1.04.18-3.1.4-3.24-.8-.06-.56.28-1.06.78-1.24 1.32 0 2.58.12 3.8-.86.54-.46 1.24-1.14 1.08-2.1-.32-1.8-3.8-.54-3.88-2.04-.06-1.1.52-1.18 1.46-1.64.4-.2 2.32-1.1 2.2-1.8-.14-.7-1.74-.5-2.2-.32-.72.22-1.76 1-2.4 1.26-.74.14-1.36-.18-1.46-.58-.22-.98.66-1.3 1.24-1.68 1.06-.58 1.94-.84 3.46-1.02z" fill="#222" fill-rule="nonzero"/><path d="m179.073248 12.9877026c-.4-1.32.34-2.66.22-3.98000001-.48-.22-1.32-.24-2.02-.18-1.34.1-2.64-.12-2.96-1.06-.24-.7.2-2.14.4-2.9.28-1.06.5-1.88.68-2.62.24-.98.18-2.08 1.3-2.16.58-.02 1.12.22 1.2.76.12.82-.32 2.16-.6 3.08-.26.9-.68 2.36-.58 2.56.2.2 2.4.14 3.14.08.24-.62.62-2.04.82-3.14.28-1.56.3-3.38 1.6-3.42.8-.04 1.28.04 1.14 1.12-.22 1.56-1.06 5.3-1.14 5.68-.4 1.72-.82 5.36000001-1.04 5.88000001-.34.64-1.52.84-2.16.3z" fill="#222" fill-rule="nonzero"/><path d="m246.853248 89.2677026c.64.06 1.62.02 2.42.24 1.6.3 3.4 1.34 3.12 3.32-.48 2.28-2.46 4.1-4.7 4.42-1.56.2-3.34-.12-3.52-1.04-.08-.48.1-1.4.74-1.54.76-.16 1.48.44 2.2.46 1.36-.08 2.56-.78 2.84-2.06-.08-1.52-1.9-1.6-3.28-1.42-1.08.18-1.82.38-2.08-.84-.02-1.78.38-3.7.52-5.62.04-.72.7-1.2 1.38-1.22 1.26-.08 1.66-.18 3.5 0 1.04.1 2.48-.08 2.64.86.14.84-.3 1.5-.94 1.54-.82.08-3.42-.2-4.04.06-.66.26-.72 2.18-.8 2.84z" fill="#222" fill-rule="nonzero"/><path d="m322.103248 82.8277026c.86-.08 1.98-.36 2.68-.22 1.82.34 3.4 1.42 3.2 3.68-.24 2.42-3.54 4.4-6.1 4.14-2.22-.24-3.22-1.68-3.02-4.56.16-2.38 1.5-5.78 2.8-7.22.34-.4 1.7-1.86 2.28-1.92.5-.08 1.52.32 1.58.86.06.74-1.28 1.66-1.66 2.08-.74.78-1.48 2.06-1.76 3.16zm-.68 2.98c-.46 1.26-.04 2.4.98 2.46 1.58.08 3.3-.96 3.22-2.68-.42-1.58-3.76-.9-4.2.22z" fill="#222" fill-rule="nonzero"/><path d="m337.293248 5.74770259c1.22-.06 3.72 0 5.42-.02.66.02 1.5.38 1.56.98.08.78-.66 1.52-.96 2.04-.82 1.40000001-1.54 2.82000001-2.14 4.46000001-.68 1.56-1.22 3.84-1.36 5.48-.06.6-1.36 1-2 .7-.88-.38-.42-1.8-.22-2.62.38-1.58.64-2.9 1.22-4.32.6-1.56 1.22-2.90000001 1.88-4.32000001-.8-.2-3.56.3-4.9-.24-.34-.34-.36-1.16-.12-1.62.28-.48 1.04-.48 1.62-.52z" fill="#222" fill-rule="nonzero"/><path d="m395.273248 100.995706c.42.52 1.48 1.32 1.52 3.18.04 2.04-1.02 3.22-2.82 3.78-1.58.5-3.32.44-4.58-.36-.7-.42-1.62-1.46-1.7-2.28-.1-1.06.26-2.02.66-2.54.28-.36.8-1 1-1.26-.2-.24-.66-1.2-.76-1.7000002-.36-1.86-.44-2.94.46-4.08.76-.98 3.08-1.68 4.68-1.36 2.72.16 3.68 3.12 2.58 5.24-.28.5400002-.62 1.0000002-1.04 1.3800002zm-.8 3.32c.02-.58-.84-1.5-1.72-1.6-1.3-.14-2.78.5-2.78 1.82 0 .76.76 1.52 1.7 1.54 1.26.02 2.74-.14 2.8-1.76zm-2.28-4.26c1.16.02 2.06-.6200002 2.2-1.4200002.38-2.12-1.46-2.6-2.86-1.98-1.42.62-.84 3.3800002.66 3.4000002z" fill="#222" fill-rule="nonzero"/><g stroke="#222" stroke-width="2.5"><path d="m12.3732482 83.3277026 1.3113045-.8538727c12.8689132-8.3797574 21.6483597-21.7581465 24.2145963-36.898942l.9740992-5.7471853" stroke-dasharray="6 6" stroke-linecap="round"/><path d="m63.889884 25.8277026 2.3405021 2.7305858c8.1424097 9.4994779 19.5504089 15.6010759 31.9718221 17.1002119l9.6876758 1.1692023" stroke-dasharray="6 6" stroke-linecap="round"/><path d="m137.373248 44.3277026 4.294892-1.2793296c12.118405-3.6097377 21.893293-12.6091431 26.490143-24.3885711l.714965-1.8320993" stroke-dasharray="6 6" stroke-linecap="round"/><path d="m195.873248 7.82770259 13.411175 7.10953821c17.801179 9.4367696 30.501079 26.2816628 34.675112 45.9923718l2.413713 11.39809" stroke-dasharray="6 6" stroke-linecap="round"/><path d="m247.373248 109.327703-2.030069 12.58643c-3.517666 21.809528 11.310818 42.341276 33.120347 45.858942 2.929621.47252 5.902726.617565 8.864429.432458l12.355029-.772189c22.048368-1.378023 38.804994-20.368866 37.426971-42.417234-.300321-4.805142-1.46566-9.516597-3.439953-13.907696l-5.296754-11.7807114" stroke-dasharray="6 6" stroke-linecap="round"/><path d="m315.373248 71.3277026-1.969513-5.7444136c-5.928245-17.2907133.398436-36.4126906 15.469513-46.7555864" stroke-dasharray="6 6" stroke-linecap="round"/><path d="m350.373248 15.8277026c19.199344-1.892893 36.29798 12.1367571 38.190873 31.3361006.02395.2429244.045353.4860931.064206.7294662l2.744921 35.4344332" stroke-dasharray="6 6" stroke-linecap="round"/><path d="m402.373248 116.327703c13.562449 20.035436 36.983312 31.065427 61.067361 28.759508l7.932639-.759508" stroke-dasharray="6 6" stroke-linecap="round"/></g></g><path d="m505.8 331.640428c.98-.1 2.7.16 3.54 1.06 1.32 1.3.78 4.8-.06 6.82-.96 2.3-2.1 4.16-4.2 5.6-.44.26-1.98.66-2.08-.58-.08-.88.8-1.32 1.4-1.8.48-.38 1.42-1.46 1.54-1.92-.3-.12-1.66-.4-2.22-.66-1.4-.68-2.46-1.62-2.24-3.86.24-2.42 2.32-4.44 4.32-4.66zm-1.96 5.68c.56 1.14 2.14 1.4 3.26 1.18.38-.58.84-1.4.84-2.36 0-1.54-.52-2.52-2.04-2.28-1.24.2-2.64 1.78-2.06 3.46z" fill="#222" fill-rule="nonzero"/><g stroke="#222" stroke-linecap="round" stroke-width="2.5"><path d="m557.5 223 13.5 7-13.5 6z" stroke-linejoin="round"/><path d="m557.5 236v8"/><path d="m553.5 244h8"/><path d="m519.5 334c23.655729-14.940461 38-40.965652 38-68.94441v-7.05559" stroke-dasharray="6 6"/><path d="m544.5 215.5 4.5 2.5"/><path d="m566 218 5-3.5"/><path d="m545 231 5-3.5"/><path d="m557.5 206.5v8.5"/></g><g transform="translate(34.5 83)"><path d="m24.3999023 60.012207c-7.9496688-8.1450368-7.5249023-26.0592828-7.5249023-31.887207 0-18.125 11.0910102-25.13843825 23.75-23.75 12.6589898 1.38843824 16.875 8.75 16.875 26.875 0 5.6250822.8331664 25.4767393-13.2799442 31.3697113" stroke="#222" stroke-linecap="round" stroke-width="2.5"/><path d="m38.125 36.25-.4525615 4.0730538c-.0952352.8571162.371895 1.987413 1.0447163 2.52567l1.9078452 1.5262762" stroke="#222" stroke-linecap="round" stroke-width="2.5" transform="matrix(-1 0 0 1 78.125 0)"/><ellipse cx="32.406841" cy="33.783743" fill="#222" rx="1.930433" ry="2.11875"/><ellipse cx="47.050367" cy="34.24761" fill="#222" rx="1.930433" ry="2.11875"/><path d="m23.125 70-13.28065008 6.4608568c-6.02225304 2.9297447-9.84434992 9.0395299-9.84434992 15.736614v.3025292" stroke="#222" stroke-linecap="round" stroke-width="2.5"/><path d="m28.125 28.75c2.0833333-2.5 4.5833333-3.75 7.5-3.75" stroke="#222" stroke-linecap="round" stroke-width="2.5" transform="matrix(.93969262 .34202014 -.34202014 .93969262 11.114089 -9.281131)"/><path d="m45 26.875c2.5-.4166667 4.7916667 0 6.875 1.25" stroke="#222" stroke-linecap="round" stroke-width="2.5" transform="matrix(.99862953 -.05233596 .05233596 .99862953 -1.368768 2.572604)"/><path d="m30.9646756 22.8137705c9.3568829-1.9472611 14.0353244-5.1768513 14.0353244-9.6887705 6.4583333 0 9.9881999 4.4390361 10.5895996 13.3171082-.5093228 16.2299426-2.4761727 27.3159516-5.9005497 33.2580271-.3020557.5241355-4.2451382 3.5407571-4.5691158 4.0498647 0 7.2910156 14.2550659 1.2847687 18.5714722-6.875-3.1591797-3.875-4.3164063-12.5-4.3164063-18.125s1.25-19.375 0-24.375c-1.9160411-7.66416426-10.625-14.375-20-14.375-12.5 0-18.125 5.625-22.5 11.875-8.75 15.625 4.375 31.25-7.5 45 2.1875 7.4058367 8.4042969 10.9272461 15.3964831 10.9272461-.3007912-.751978.6491711-6.087596 0-6.3602938-2.4953741-1.0482341-2.7381554-11.3665015-.7283441-30.9548023l-.0000035-.0000004c.389125-3.7925442 3.1890554-6.8966116 6.9215401-7.6733791z" fill="#222"/><g stroke="#222" stroke-linecap="round" stroke-width="2.5"><path d="m32.2925883 47.4992252s3.6324488 5.498551 11.3583902 5.223862" transform="matrix(-.91354546 -.40673664 -.40673664 .91354546 93.045434 19.777418)"/><path d="m44.375 62.5 1.9575925 4.2115002c.3515441.7563004.9451769 1.373829 1.6870226 1.7549308l10.1928178 5.2362668c6.9453515 3.5679744 11.2708822 10.7615729 11.1656433 18.5690868l-.0030762.2282154"/><path d="m31.25 77.75 2.6778883-3.5705177c.7074409-.9432546 1.5982215-1.7338021 2.6188454-2.3241656l5.8951808-3.4099728c1.5622303-.903647 2.2591946-2.7919124 1.6586869-4.4938325l-1.9154547-5.4286569c-.1810335-.5130733-.0094013-1.0843176.4244354-1.4126512l8.305474-6.2856961c.8706521-.6589214 1.0422938-1.8988858.3833723-2.769538-.0021357-.002822-.004279-.0056382-.0064298-.0084487-.6873104-.8980995-1.9407-1.1344201-2.9078599-.5482631l-12.0298133 7.2907898c-2.3518983 1.4253917-5.3160862 1.3614456-7.6043254-.1640472l-1.7697793-1.1798529c-1.2353446-.823563-2.8030666-.9674989-4.1677207-.3826471-.9866796.4228627-1.4437434 1.5655224-1.0208808 2.552202.0513702.1198637.1146729.2342534.1889512.34144l2.8034702 4.045519c.638312.9211096.8312145 2.0794235.5258727 3.1576866l-2.1849133 7.7156524"/><path d="m3.75 101.5 16.5987024-29.1908214c.6824889-1.2002392 2.2087416-1.6199587 3.4089808-.9374697.1519827.0864215.2944804.1885477.425154.304702l7.5697414 6.728659c.8166408.7259029 1.0672703 1.8980436.6188942 2.894435l-10.4964728 23.3254951"/></g></g><g transform="translate(331 355)"><g stroke="#222" stroke-linecap="round" stroke-width="2.5"><path d="m63.7098649 59.5-3.4210172 5.5961581c-.7571297 1.2385257-1.8805744 2.2110357-3.2148038 2.7828952l-9.6423786 4.1327871c-4.4222234 1.8953941-7.7872834 5.6394737-9.2017328 10.2381596l-1.2336202 4.0107698c-.1623634.5278793-.7219157.8241884-1.249795.6618249-.3243712-.099769-.5760059-.3572398-.668313-.6838128l-2.983347-10.5547735c-.365181-1.2919728-1.5443029-2.1840084-2.8868941-2.1840084h-8.2634418c-1.6568542 0-3 1.3431458-3 3 0 .2175267.0236588.4344082.0705589.6468188l1.7730056 8.029939"/><path d="m81.375 60.5 1.0016127 2.9236526c.3193541.9321771.992776 1.7012024 1.8746515 2.1407893l5.9552788 2.9685171c4.6686355 2.3271663 8.1362955 6.5190432 9.5471956 11.5411167l1.1168944 3.9755666c.298752 1.0634008 1.402995 1.6832715 2.466395 1.3845199.581931-.1634876 1.058705-.5813902 1.297036-1.1368811l4.11278-9.5858575c.315338-.7349731 1.038209-1.2114236 1.837974-1.2114236h10.002117c1.10457 0 2 .8954305 2 2 0 .0394698-.001168.078931-.003503.1183317l-.492612 8.3113558"/><path d="m73.125 36.25-.4525615 4.0730538c-.0952352.8571162.371895 1.987413 1.0447163 2.52567l1.9078452 1.5262762" transform="matrix(-1 0 0 1 148.125 0)"/></g><ellipse cx="66.406841" cy="32.783743" fill="#222" rx="1.930433" ry="2.11875"/><ellipse cx="81.050367" cy="34.24761" fill="#222" rx="1.930433" ry="2.11875"/><path d="m62.125 28.75c2.0833333-2.5 4.5833333-3.75 7.5-3.75" stroke="#222" stroke-linecap="round" stroke-width="2.5" transform="matrix(.97437006 .22495105 -.22495105 .97437006 7.733932 -14.129846)"/><path d="m79 28.875c2.5-.4166667 4.7916667 0 6.875 1.25" stroke="#222" stroke-linecap="round" stroke-width="2.5" transform="matrix(.99254615 .12186934 -.12186934 .99254615 4.200101 -9.827298)"/><path d="m67.2925883 47.4992252s3.6324488 5.498551 11.3583902 5.223862" stroke="#222" stroke-linecap="round" stroke-width="2.5" transform="matrix(-.91354546 -.40673664 -.40673664 .91354546 160.019525 34.0132)"/><path d="m66.4651831 21.352623c8.3165001-.6756553 12.4747501-3.1610349 12.4747501-7.4561386 6.3330133.3190104 9.4995199 4.5109453 9.4995199 12.5758047 1.4290365 15.7636013-1.5924479 27.1061716-9.0644531 34.0277109-.0102872 1.0795898 1.5842285 4.2161652 2.1223145 4.7578125 4.1806885 4.2083585 18.7293805-.7726424 17.2526855-9.6328125-3.125-3.125-4.375-11.25-4.375-16.875s.5177156-18.0419922-.7322844-23.0419922c-1.916041-7.66416425-9.8927156-15.7080078-19.2677156-15.7080078-12.5 0-16.7138672 5.54785156-21.0888672 11.7978516-8.75 15.625 4.375 34.2021484-8.9111328 45.0771484-1.875 11.875 15 14.2808367 18.125 7.4058367.4315732-2.375075 1.1306711-5.2987573 0-6.6465594-3.5791548-4.2664858-4.932621-13.628914-4.0603985-28.0872845l-.0000031-.0000002c.2623273-4.3484606 3.6835247-7.8416087 8.0255847-8.1943696z" fill="#222"/><path d="m71.950671 62.5c-14.1782101 0-19.075671-26.7768021-19.075671-34.375 0-18.125 11.0910102-25.13843826 23.75-23.75000001s16.3374329 8.16499291 16.3374329 26.28999291c0 6.6308882-2.1929191 31.8350071-21.0117619 31.8350071z" stroke="#222" stroke-linecap="round" stroke-width="2.5"/><path d="m28.4804687 73.5-3.6870859-13.4879134c-.2758525-1.00911-1.0322988-1.8168557-2.021166-2.1582341l-.2367628-.0817357c-.8783067-.3032106-1.8237287-.3556828-2.7301948-.1515297l-3.4342741.7734629c-.0158775.0035759-.0317108.0073455-.0474963.0113079l-3.0170923.7573401c-1.9158822.480918-3.946433.0387952-5.48893199-1.1951348l-2.96189817-2.3693858c-.98013556-.7840646-2.39160878-.7119402-3.28671868.1679468-.8879479.8728468-.96210303 2.2793739-.17085937 3.2407513l3.35257853 4.0734521c1.70960481 2.0772052 4.25880471 3.2806976 6.94907048 3.2806976h3.0806361c2.7614238 0 5 2.2385763 5 5v2.1389748z" stroke="#222" stroke-linecap="round" stroke-width="2.5"/><path d="m140.480469 73.5-3.68963-13.4972196c-.270276-.9887081-1.058069-1.7514297-2.054999-1.9895968l-.059697-.0142616c-1.027814-.2455454-2.094091-.2850278-3.13725-.116167l-3.107319.5029959c-.056245.0091046-.112075.0206086-.167338.0344804l-2.95784.7424667c-1.915882.480918-3.946432.0387952-5.488931-1.1951348l-2.961899-2.3693858c-.980135-.7840646-2.391608-.7119402-3.286718.1679468-.887948.8728468-.962103 2.2793739-.17086 3.2407513l3.352579 4.0734521c1.709605 2.0772052 4.258805 3.2806976 6.94907 3.2806976h3.080636c2.761424 0 5 2.2385763 5 5v2.1389748z" stroke="#222" stroke-linecap="round" stroke-width="2.5" transform="matrix(-1 0 0 1 252.480468 0)"/></g><g transform="translate(155 17)"><path d="m36.1256733 62.069938c-16.6248089-.2057989-15.0135162-24.8855763-15.4357319-32.4058366-.9575417-17.0551758 2.371582-19.2836914 19.9350586-19.2836914s15.1230469 5.3355713 15.1230469 23.4605713c0 6.6308882-1.9179688 28.4481201-19.6223736 28.2289567z" stroke="#222" stroke-linecap="round" stroke-width="2.5"/><path d="m38.125 35.0391014-1.1937961 5.6016587c-.2381474 1.1174605.4842673 2.1343075 1.6071267 2.2704116l2.0866694.2529297" stroke="#222" stroke-linecap="round" stroke-width="2.5" transform="matrix(-1 0 0 1 77.125 0)"/><ellipse cx="32.406841" cy="34.572844" fill="#222" rx="1.930433" ry="2.11875"/><ellipse cx="45.406841" cy="34.572844" fill="#222" rx="1.930433" ry="2.11875"/><g stroke="#222" stroke-linecap="round"><path d="m27.7098649 59.2891014-3.516548 5.7524291c-.6975863 1.1411235-1.7074824 2.0585163-2.9101701 2.6436076l-11.43879688 5.5648201c-6.02225304 2.9297447-9.84434992 9.0395299-9.84434992 15.736614v.3025292" stroke-width="2.5"/><path d="m43.125 30.5391014c1.5277778-1.1666667 3.3611111-1.75 5.5-1.75" stroke-width="2.5" transform="matrix(-.9945219 .10452846 .10452846 .9945219 88.397949 -4.63274)"/><path d="m28.125 30.5391014c1.5277778-1.1666667 3.3611111-1.75 5.5-1.75" stroke-width="2.5" transform="matrix(-.76604444 .64278761 .64278761 .76604444 35.458906 -12.905986)"/><path d="m44.9175077 76.6170749c.9256479 3.2901617 2.1533554 5.6057858 3.6831226 6.9468725" stroke-width="2.45" transform="matrix(.9998477 .01745241 -.01745241 .9998477 1.404894 -.80386)"/><path d="m49.6760547 88.8715325-3.6528229-1.0906098c-1.76416-.5267186-3.3488803-1.5297801-4.5798609-2.89886l-2.6971381-2.9997204-2.8862117-5.5613041c-.2278337-.4390019-.7684106-.6101875-1.2074125-.3823539-.1330603.0690558-.2466564.1704094-.3303736.2947684l-.0744959.110661c-.4831879.7177586-.5975171 1.6220794-.308163 2.437507l1.2018379 3.3868956c.3361439.9472858-.1592846 1.9877112-1.1065705 2.323855-.2540847.0901619-.5250272.1227473-.7932443.095401l-4.2048988-.4287126c-.8510923-.0867736-1.7066038.1156661-2.4285494.5746675-.5480326.3484303-.7098421 1.0751571-.3614118 1.6231896.0243903.0383626.0509848.0752786.0796494.1105619l.2081229.2561783c.5234081.6442627.4254361 1.5908469-.2188266 2.114255-.0364385.0296032-.074244.0574827-.1132922.083547l-.1916612.1279321c-.544972.3637638-.6918703 1.1004397-.3281065 1.6454117.0982215.1471503.2281101.2704702.3801552.3609299l1.0014023.5957876c.6918459.411616.9190171 1.3061485.5074011 1.9979945-.0680525.114383-.1514505.2189066-.247869.3106569-.448737.4270111-.4663494 1.1369452-.0393383 1.5856823.1333853.1401718.3007652.2434521.4858715.2998028l.9332346.2840986c.6108778.1859656.9553372.8319347.7693716 1.4428125-.0306994.1008443-.0750455.1970167-.1318058.2858441l-.1261139.1973627c-.3888056.6084638-.230597 1.4150864.359245 1.8316011l.525611.3711582c.3418034.241363.7563352.357578 1.1737958.329076l4.4959621-.306958c1.7514304-.119578 3.4816508-.4529985 5.1520963-.9928305 1.6613881-.5369051 3.4101252-.7511359 5.1519865-.6311493l2.0851169.1436313" stroke-width="2.45" transform="matrix(.98162718 .190809 -.190809 .98162718 17.435219 -5.458322)"/><path d="m45.375 60.2891014 1.0102112 2.9487512c.3142468.9172691.971567 1.6771664 1.8340227 2.1202282l13.9584985 7.1707768c4.5263171 2.3252651 7.3721333 6.9865941 7.3721333 12.0752485v2.1262455c0 2.7614238-2.2385762 5-5 5-.3460176 0-.6911006-.0359182-1.0297012-.1071772l-11.0972211-2.3354253c-1.0344236-.2176959-2.0596309.4071799-2.3401653 1.426358l-3.3237091 12.0749939" stroke-width="2.5"/><path d="m31.2935099 49.2156484s2.1804349 3.3905315 6.4823788 2.9863526c2.2525474-.2116328 4.0722917-1.0772177 5.2948954-1.8538979" stroke-width="2.5" transform="matrix(-.9781476 -.20791169 -.20791169 .9781476 84.099208 8.839183)"/></g><path d="m29.8310112 18.5697744c9.4416904 1.054628 14.712922-.0102968 15.8136947-3.1947744 2.9416156.8512495 4.462553 2.1460392 6.0398644 4.7099998.6239065 1.0141761 2.9037037-.5829282 3.441764 1.5627716.4160007 1.6589452.4160007 5.9673028 0 12.9250729.389974 10.6181038-2.7705688 19.5938224-9.4816284 26.9271557-.8949218 10.3515625 20.5050659 4.375 18.6300659-6.875-3.125-3.125-7.375-19.25-7.375-24.875 0-2.4224477-.0076702-6.3272002.3418053-8.798301.4620178-3.2668733 1.803109-4.9936188 1.0914307-7.840332-1.9160411-7.66416426-9.058236-13.111367-18.433236-13.111367-12.5 0-19.3585453 3.58807425-23.1131142 11.7871482-1.5583312 2.7827344.459375 5.7371221 1.5942018 9.1645508.8524981 2.5747334.7484796 5.7250289.7933379 7.5613591.2307228 9.4449102-1.1030302 17.9003263-9.27442549 27.3619419-1.875 11.875 12.40380859 12.8237305 15.81201169 9.8281292 1.2559039-2.4222925 5.1725199-4.2892648 2.5228532-6.4531292-4.4016124-3.5946002-7.1050692-14.0877207-8.1103706-31.4793617l-.0000042.0000003c-.2788706-4.8244408 3.4060421-8.961492 8.2304829-9.2403626.4923226-.0284581.9861699-.0152449 1.4762664.0394984z" fill="#222"/><path d="m19.7323997 21.6477714c11.6332518-4.4193805 24.4807515-4.4338746 36.1239452-.0407537l.1080106.0407537-.1776979 6.14133-2.2056758-.4712428c-10.8416585-2.3163209-22.0885212-1.9079389-32.7336354 1.1885828z" stroke="#222" stroke-linecap="round" stroke-width="2.5"/></g><g transform="translate(286 73)"><g stroke="#222" stroke-linecap="round" stroke-width="2.5"><path d="m27.7098649 59.5-3.4210172 5.5961581c-.7571297 1.2385257-1.8805744 2.2110357-3.2148038 2.7828952l-9.6423786 4.1327871c-4.42222344 1.8953941-7.78728335 5.6394737-9.20173285 10.2381596l-.74970269 2.4374481c-.91974499 2.9902929-.22060766 6.2436785 1.84640858 8.5921304l1.53840865 1.7478715c2.08776141 2.3720216 5.26657221 3.4753694 8.37496091 2.9069031l11.6674498-2.1337591c1.5705992-.2872333 3.0909899.7060237 3.4589431 2.2596952l1.7865032 7.5434558c.3290502 1.389405-.3667463 2.8182-1.6634709 3.415883l-5.3644331 2.47256"/><path d="m45.375 60.5 1.0016127 2.9236526c.3193541.9321771.992776 1.7012024 1.8746515 2.1407893l6.0610191 3.0212253c4.6199154 2.3028809 8.1131301 6.3750212 9.6862519 11.291541 1.3674793 4.2738199 5.8994036 6.6716372 10.2020829 5.3978682l11.2188067-3.3212253c1.0591328-.3135466 2.1719094.2908704 2.485456 1.3500033.019263.0650687.0352018.1310756.0477546.1977646l1.8480419 9.8180355c.1573684.8360467-.2313702 1.6801476-.9689788 2.1040254l-6.0533782 3.4786639"/><g transform="matrix(-.54463904 -.83867057 -.83867057 .54463904 129.911699 90.486506)"><path d="m13.3746914 34.0613509 4.7182014-2.7862315c.0065549-.0038709.0131049-.0077503.0196497-.0116383l6.4807643-3.8499238c1.3546804-.8047532 2.0617916-2.3705218 1.7698092-3.9189187l-1.2405928-6.5789222c-.0853395-.4525595.0850787-.915386.4435253-1.2045382l6.7076028-5.4108988c.8607461-.69434798 1.0111614-1.94823816.3390595-2.82646485-.68649-.89702749-1.9397866-1.13032625-2.9030701-.54040094l-8.6447756 5.29415489c-1.4779262.9050982-3.2236941 1.2704365-4.9405293 1.0339089l-.2313642-.0318749c-1.711558-.2358006-3.3740956.6833036-4.0846754 2.2581399l-1.7001037 3.7678879c-.11639438.2579612-.26161605.5019175-.43289137.7272093l-3.63051912 4.7755059" transform="matrix(-.8660254 -.5 -.5 .8660254 47.184184 12.642964)"/><path d="m23.6474624 32.0078235-1.065813-1.2975388c-1.5830583-1.9272419-1.8088053-4.6328318-.5670204-6.7957707l.9591274-1.6706065-3.6709116-2.3541382c-.6919164-.4437227-1.0418921-1.265604-.8822745-2.0719292l.054773-.2766914c.1781151-.8997675 1.0371662-1.49658 1.9425319-1.349544l7.6956517 1.2498125" stroke-linejoin="round"/></g><path d="m37.125 36.25-.4525615 4.0730538c-.0952352.8571162.371895 1.987413 1.0447163 2.52567l1.9078452 1.5262762" transform="matrix(-1 0 0 1 76.125 0)"/></g><ellipse cx="32.406841" cy="32.783743" fill="#222" rx="1.930433" ry="2.11875"/><ellipse cx="47.050367" cy="34.24761" fill="#222" rx="1.930433" ry="2.11875"/><path d="m26.125 28.75c2.0833333-2.5 4.5833333-3.75 7.5-3.75" stroke="#222" stroke-linecap="round" stroke-width="2.5" transform="matrix(.97437006 .22495105 -.22495105 .97437006 6.811254 -6.031608)"/><path d="m43 27.875c2.5-.4166667 4.7916667 0 6.875 1.25" stroke="#222" stroke-linecap="round" stroke-width="2.5" transform="matrix(.9781476 .20791169 -.20791169 .9781476 6.924011 -9.033813)"/><path d="m31.2925883 47.4992252s3.6324488 5.498551 11.3583902 5.223862" stroke="#222" stroke-linecap="round" stroke-width="2.5" transform="matrix(-.91354546 -.40673664 -.40673664 .91354546 91.131889 19.370681)"/><path d="m30.4651831 21.352623c8.3165001-.6756553 12.4747501-3.1610349 12.4747501-7.4561386 6.3330133.3190104 9.4995199 4.5109453 9.4995199 12.5758047 1.4290365 15.7636013-1.5924479 27.1061716-9.0644531 34.0277109-.0102872 1.0795898 1.5842285 4.2161652 2.1223145 4.7578125 4.1806885 4.2083585 18.7293805-.7726424 17.2526855-9.6328125-3.125-3.125-4.375-11.25-4.375-16.875s.5177156-18.0419922-.7322844-23.0419922c-1.916041-7.66416425-9.8927156-15.7080078-19.2677156-15.7080078-12.5 0-16.7138672 5.54785156-21.0888672 11.7978516-8.74999999 15.625 4.375 34.2021484-8.9111328 45.0771484-1.875 11.875 15 14.2808367 18.125 7.4058367.4315732-2.375075 1.1306711-5.2987573 0-6.6465594-3.5791548-4.2664858-4.932621-13.628914-4.0603985-28.0872845l-.0000031-.0000002c.2623273-4.3484606 3.6835247-7.8416087 8.0255847-8.1943696z" fill="#222"/><path d="m35.950671 62.5c-14.1782101 0-19.075671-26.7768021-19.075671-34.375 0-18.125 11.0910102-25.13843826 23.75-23.75000001s16.3374329 8.16499291 16.3374329 26.28999291c0 6.6308882-2.1929191 31.8350071-21.0117619 31.8350071z" stroke="#222" stroke-linecap="round" stroke-width="2.5"/><path d="m35.4546686 110.440587 9.8899494-4.530132c1.6989519-.778212 2.5656739-2.688523 2.0323893-4.479516l-1.6314379-5.4790554c-.1463426-.4914802.0223379-1.0224855.425482-1.3394143l7.4746752-5.8761624c.8662831-.6810223 1.0243102-1.93185.3546211-2.8069239-.686783-.8974103-1.9401143-1.1317866-2.9047823-.543202l-9.515183 5.8056139c-1.4757886.9004408-3.217338 1.2633954-4.9299602 1.0274482l-.2382813-.0328279c-1.6515162-.2275286-3.2157958.8045331-3.6563947 2.4123726l-.9285219 3.3883749c-.1155256.4215778-.3038695.8197111-.5565247 1.1764174l-2.3905055 3.3749889" stroke="#222" stroke-linecap="round" stroke-width="2.5" transform="matrix(.91354546 .40673664 -.40673664 .91354546 43.249337 -8.680641)"/></g><g transform="translate(444.5 32)"><path d="m24.4805167 84.9533013c.9256479 3.2901617 2.1533555 5.6057859 3.6831226 6.9468725" stroke="#222" stroke-linecap="round" stroke-width="2.45" transform="matrix(.9998477 .01745241 -.01745241 .9998477 1.547268 -.445916)"/><path d="m29.2116733 97.1106016-4.2628022-.9913978c-1.9978205-.4646321-3.8046831-1.5317791-5.1760892-3.0570383l-2.4725577-2.7499451-2.8862117-5.5613041c-.2278337-.4390019-.7684106-.6101875-1.2074125-.3823538-.1330603.0690557-.2466564.1704093-.3303736.2947683l-.0744959.110661c-.4831879.7177587-.5975171 1.6220794-.308163 2.4375071l1.2018379 3.3868955c.3361439.9472858-.1592846 1.9877112-1.1065705 2.323855-.2540847.0901619-.5250272.1227473-.7932443.0954011l-4.20489882-.4287127c-.85109226-.0867735-1.70660382.1156661-2.42854938.5746675-.54803256.3484303-.70984215 1.0751571-.36141183 1.6231896.02439033.0383627.05098479.0752786.07964947.1105619l.20812283.2561783c.52340812.6442627.42543611 1.5908469-.21882661 2.1142551-.03643848.0296031-.07424398.0574827-.11329215.0835469l-.19166118.1279321c-.54497202.3637638-.69187031 1.1004397-.32810653 1.6454117.09822147.1471503.22811011.2704702.38015519.3609299l1.00140228.5957872c.69184591.411616.91901715 1.306149.50740117 1.997995-.06805257.114383-.15145055.218907-.24786902.310657-.44873704.427011-.4663494 1.136945-.03933831 1.585682.13338528.140172.30076517.243452.48587152.299803l.93323459.284099c.61087776.185965.95533717.831934.76937161 1.442812-.03069939.100844-.07504552.197017-.13180583.285844l-.12611389.197363c-.38880566.608464-.23059702 1.415086.35924496 1.831601l.52561107.371158c.34180337.241363.75633517.357578 1.17379578.329076l4.49596208-.306958c1.7514304-.119578 3.4816508-.452998 5.1520963-.99283 1.6613881-.536905 3.4101252-.751136 5.1519865-.63115l2.0851168.143632" stroke="#222" stroke-linecap="round" stroke-width="2.45" transform="matrix(.98162718 .190809 -.190809 .98162718 18.65871 -1.305002)"/><g transform="matrix(.99026807 -.1391731 .1391731 .99026807 10.238191 14.887578)"><g stroke-width="2.45"><path d="m57.0733615 147.284111-4.5384625-22.234436c-.0443632-.217341-.0875653-.434916-.1296045-.652718l-4.8454515-25.1039165-9.294689 8.5147225c-5.7303665 5.249502-14.3132654 5.883594-20.7528591 1.533192l-17.42456551-11.7715299 6.50847333-11.1022417 13.01601608 6.0601082c3.897622 1.8146882 8.5228985.8770534 11.4061138-2.3122443l10.4596413-11.5700378c1.5049317-1.6646954 3.2250488-3.1213595 5.1149081-4.3315091l9.6771365-6.1966428c.6901315-.1232378 1.4016439-.0033788 2.013313.3391559l5.7477111 3.2187182c3.6653209 2.0525797 8.1522173 1.9711324 11.7406301-.2131189l4.9167105-2.9927803c.5775991-.3515821 1.2561959-.4998765 1.9278014-.4212844l1.664461.1630769c8.1532112.7988173 15.0167942 6.4423914 17.3761694 14.2875372l.629982 2.0947501" stroke="#222" stroke-linecap="round" stroke-linejoin="round"/><path d="m59.4899308 49.2422651s2.9082567 3.3599965 8.639991 3.3599965c5.7317344 0 8.6399911-3.3599965 8.6399911-3.3599965" stroke="#131315" stroke-linecap="round" transform="matrix(-.9961947 -.08715574 -.08715574 .9961947 140.438757 6.131689)"/><path d="m71.4897873 5.03775642c14.1312693 1.23632587 19.1715152 13.83196728 19.8402332 25.92352618 1.9083063.5832968 3.2155971 2.4380904 3.0346856 4.5059183-.1642067 1.8768912-1.5053691 3.3680371-3.2326694 3.8098626-1.9168119 17.5195743-17.0893884 25.0379182-24.7460844 24.0977942-7.7598687-.9527921-21.8871359-8.6755959-20.1313853-28.7439174l.0073315-.0771068c-1.7462915-.6769444-2.9113136-2.4452061-2.739873-4.4047807.1913544-2.1871913 1.9809983-3.8505456 4.1174646-3.9399576 2.8902969-11.6772349 10.0054117-22.38260931 23.8502972-21.17133878z" stroke="#222" stroke-linecap="round" transform="matrix(.99254615 -.12186934 .12186934 .99254615 -3.653849 8.656993)"/><path d="m68.5062107 37.7622284-1.2971625 5.5129406c-.2877499 1.2229373.4877652 2.2143239 1.7517075 2.2143239h2.2727248" stroke="#222" stroke-linecap="round" transform="matrix(-1 0 0 1 137.921512 0)"/><ellipse cx="60.115793" cy="34.169734" rx="6.509925" ry="6.164877" stroke="#222" stroke-linecap="round"/><ellipse cx="78.297592" cy="34.169734" rx="6.509925" ry="6.164877" stroke="#222" stroke-linecap="round"/></g><circle cx="60.057789" cy="34.886549" fill="#222" r="1.53149"/><circle cx="78.239588" cy="34.886549" fill="#222" r="1.53149"/><path d="m72.9450697 0c1.5772166 0 2.8539126.49899624 3.8300881 1.49698873.6093366.62294885 1.4037424 1.03220828 2.2647086 1.16672072l1.0378013.16214015c1.6185203.25286836 3.0232146 1.25373729 3.7907343 2.70096358l.2495829.47061075c.7932676 1.49579452 2.2832786 2.49457809 3.9683001 2.66003841 2.6971689.26484792 4.1789989 1.60502626 4.4454899 4.02053516.0793443.7191874-.0577729 1.5796054-.4113517 2.5812538-.2965065.839933-.0891425 1.7753911.5345175 2.4113563l.3042175.3102198c.4839005.4934482.6819684 1.2000232.5250695 1.873101l-.1441526.6183973c-.2417572 1.0371142-.2059774 2.1196207.1037372 3.138507.1948995.6411723.2923493 1.2295738.2923493 1.7652045 0 2.1338251-1.7298071 3.8636322-3.8636322 3.8636322-2.9948957 0-5.5000668-2.2745124-5.7884234-5.2554939l-.3315092-3.4267498c-.1767899-1.8274447-1.8015431-3.1655647-3.6289878-2.9887748-.2231121.0215842-.443469.065679-.6577068.1316112l-6.5239102 2.0077507c-2.3064617.7098197-4.7639233.7703256-7.1025225.1748732l-7.5037628-1.9106024c-1.5757232-.4012095-3.1783438.5509221-3.5795533 2.1266453-.0604518.2374205-.0910323.4814583-.0910323.726454v2.1742691c-.0000074 3.8854955-3.1498239 7.0353119-7.0353194 7.0353119-2.9944216 0-5.42188-2.4274583-5.42188-5.42188 0-.7198137.2515514-1.4652086.7546543-2.2361847l-.0000022-.0000014c1.2718668-1.9490623 1.6416351-4.3518614 1.014623-6.5931434-.130945-.4680689-.1964176-.9021312-.1964176-1.3021868 0-3.8830242 3.1478131-7.03083727 7.0308373-7.03083727-.024746 0-.0491221.00026859-.0731283.00080578v.0000041c1.9134688-.0428175 3.6942732-.98697588 4.803478-2.54673891 1.9827649-2.78816263 4.034668-4.18224394 6.1557093-4.18224394.5435632 0 1.1675268.10798331 1.8718908.32394992l.0000007-.00000235c2.0044168.61457869 4.1596479.51747329 6.1006749-.27487004 1.260198-.51442326 2.3518072-.77163489 3.2748278-.77163489z" fill="#222"/><path d="m84.8698296 33.6713237h3.1818148l2.2727248-5.4545397" stroke="#222" stroke-width="2.45"/><path d="m53.5062267 34.1258686h-3.6363597l-3.1818148-5.9090846" stroke="#222" stroke-width="2.45"/><path d="m66.6880308 34.1258686c1.5798526-1.3165438 3.8746871-1.3165438 5.4545397 0" stroke="#222" stroke-width="2.45"/><path d="m61.3777483 61.3606132-1.0101 8.0807997" stroke="#222" stroke-width="2.45"/><path d="m77.5393476 60.3505133 2.0202 9.0908996" stroke="#222" stroke-width="2.45"/></g><g stroke="#222" stroke-linecap="round" stroke-width="2.45"><path d="m9.68172458 107.83179.99389972-.079831c.8170559-.065627 1.5305912-.578293 1.8534818-1.331705l.083595-.195055c.2717465-.634075.1723528-1.36626-.258595-1.904945-.4424419-.553052-1.112294-.875-1.8205467-.875h-3.77945318"/><path d="m9.60076144 103.445254 1.33436066-.182847c.7162532-.098148 1.3327255-.555411 1.634487-1.212368l.0167753-.036521c.2867378-.624249.1968582-1.356843-.2322783-1.893264-.4445938-.555742-1.108531-.8911296-1.8196743-.9192075l-4.80161463-.1895812"/><path d="m9.39346164 99.1433562 1.29821546-.0404426c.6563199-.020446 1.2451662-.408813 1.5223778-1.0040673l.0300043-.0644281c.2639444-.5667659.2295148-1.2275556-.0919018-1.763822-.3245751-.5415362-.8793554-.9045304-1.5055512-.9850862l-4.91378903-.6321257"/><path d="m10.7939743 91.7418732.7633622.3458985c.4816523.2182487.8475252.6313441 1.005992 1.1358336.156865.4993898.070673 1.0434289-.232872 1.469876l-.0057022.0080109c-.3011006.423013-.8073585.6502017-1.3235342.5939503l-2.17189419-.2366871"/></g></g></g></svg>