<svg height="300" viewBox="0 0 800 300" width="800" xmlns="http://www.w3.org/2000/svg"><g fill="#000" fill-rule="evenodd"><g transform="translate(202 52)"><path d="m17.2830839 28.2535902-7.1069141 6.3364068c-.95107255.8479605-.89718079.8772945-.6932811-.3770812l1.0032212-6.1717424.1255605-.7724386-.71961184-.3075476c-4.74731029-2.0289048-7.89205856-6.704479-7.89205856-11.9611872 0-7.17685731 5.82142814-13 12.9900589-13h12.0198822c7.1746579 0 12.9900589 5.81904516 12.9900589 13 0 7.1768573-5.8214281 13-12.9900589 13h-9.0613706-.3810598zm1.3309732 1.4928196-.6654866.2535902h9.0613706c8.2733321 0 14.9900589-6.718705 14.9900589-15 0-8.28524396-6.7105509-15-14.9900589-15h-12.0198822c-8.27333212 0-14.9900589 6.71870501-14.9900589 15 0 6.0643834 3.62856807 11.459295 9.1060717 13.8002698l-.59405138-1.0799861-1.00322124 6.1717424c-.50687778 3.1182744 1.64459911 4.2893503 3.99834392 2.1907905z" fill-rule="nonzero"/><path d="m11 11h20v2h-20z"/><path d="m11 18h16v2h-16z"/></g><g fill-rule="nonzero" transform="translate(576 171)"><path d="m17.2830839 28.2535902-7.1069141 6.3364068c-.95107255.8479605-.89718079.8772945-.6932811-.3770812l1.0036129-6.174152.1255366-.7722918-.71941842-.3076218c-4.74811077-2.0302825-7.89261978-6.7043673-7.89261978-11.9588502 0-7.18072632 5.81844236-13 12.9999849-13h14.0000302c7.1802991 0 12.9999849 5.81920389 12.9999849 13 0 7.1807263-5.8184424 13-12.9999849 13h-11.0514446-.3810598zm1.3309732 1.4928196-.6654866.2535902h11.0514446c8.286176 0 14.9999849-6.7147681 14.9999849-15 0-8.28540269-6.7151533-15-14.9999849-15h-14.0000302c-8.28617601 0-14.9999849 6.71476814-14.9999849 15 0 6.0621889 3.62831401 11.4554148 9.10629382 13.7977878l-.59388183-1.0799137-1.00361291 6.174152c-.50687778 3.1182744 1.64459911 4.2893503 3.99834392 2.1907905z"/><path d="m13.5 19c1.9329966 0 3.5-1.5670034 3.5-3.5s-1.5670034-3.5-3.5-3.5-3.5 1.5670034-3.5 3.5 1.5670034 3.5 3.5 3.5zm0-2c-.8284271 0-1.5-.6715729-1.5-1.5s.6715729-1.5 1.5-1.5 1.5.6715729 1.5 1.5-.6715729 1.5-1.5 1.5z"/><path d="m22.5 19c1.9329966 0 3.5-1.5670034 3.5-3.5s-1.5670034-3.5-3.5-3.5-3.5 1.5670034-3.5 3.5 1.5670034 3.5 3.5 3.5zm0-2c-.8284271 0-1.5-.6715729-1.5-1.5s.6715729-1.5 1.5-1.5 1.5.6715729 1.5 1.5-.6715729 1.5-1.5 1.5z"/><path d="m31.5 19c1.9329966 0 3.5-1.5670034 3.5-3.5s-1.5670034-3.5-3.5-3.5-3.5 1.5670034-3.5 3.5 1.5670034 3.5 3.5 3.5zm0-2c-.8284271 0-1.5-.6715729-1.5-1.5s.6715729-1.5 1.5-1.5 1.5.6715729 1.5 1.5-.6715729 1.5-1.5 1.5z"/></g><g transform="translate(121 102)"><path d="m17 34c9.3888407 0 17-7.6111593 17-17 0-9.38884075-7.6111593-17-17-17-9.38884075 0-17 7.61115925-17 17 0 9.3888407 7.61115925 17 17 17zm0-2c-8.28427125 0-15-6.7157288-15-15 0-8.28427125 6.71572875-15 15-15 8.2842712 0 15 6.71572875 15 15 0 8.2842712-6.7157288 15-15 15z" fill-rule="nonzero"/><circle cx="12" cy="13" r="2"/><circle cx="22" cy="13" r="2"/><path d="m7 20c0 4.0133363 4.5665421 8 10 8s10-3.9866637 10-8v-1h-1c-2.5 0-2.5 0-5.6666667 0-1.6458333 0-1.6458333 0-3.3333332 0-5.0625001 0-5.0625001 0-9.00000009 0h-1.00000001zm2 0-1.00000001 1h9.00000011 3.3333332 5.6666667l-1-1c0 2.8438066-3.6152761 6-8 6s-8-3.1561934-8-6z" fill-rule="nonzero"/></g><g transform="translate(342 200)"><g fill-rule="nonzero"><path d="m1 2h36l-1-1v46l1-1h-36l1 1v-46zm0-2h-1v1 46 1h1 36 1v-1-46-1h-1z"/><path d="m1.53745613 30.8609761c4.27963957-2.7275479 8.00302958-3.4041569 11.68793337-2.4558837 2.8468697.7326135 5.0101664 2.0062459 9.6452986 5.3249651.0404398.0289551.0404398.0289551.080893.0579203 6.4196398 4.5965622 9.500022 6.1610453 14.0484189 6.1610453l-1-1v8.0517739l1-1h-36l1 1v-16.9831126zm-1.07491226-1.6865834-.46254387.2947936v.5484981 16.9831126 1h1 36 1v-1-8.0517739-1h-1c-3.981393 0-6.8031086-1.4331099-12.8840806-5.7871807-.0404526-.0289648-.0404526-.0289648-.080918-.0579381-4.8384528-3.4642953-7.1409479-4.8198802-10.3111717-5.6357057-4.23755869-1.0904934-8.52720134-.3109857-13.26128583 2.7061941z"/><path d="m24.5 21c3.5898509 0 6.5-2.9101491 6.5-6.5s-2.9101491-6.5-6.5-6.5-6.5 2.9101491-6.5 6.5 2.9101491 6.5 6.5 6.5zm0-2c-2.4852814 0-4.5-2.0147186-4.5-4.5s2.0147186-4.5 4.5-4.5 4.5 2.0147186 4.5 4.5-2.0147186 4.5-4.5 4.5z"/></g><circle cx="22.5" cy="15.5" r="1"/><circle cx="26.5" cy="14.5" r="1"/><circle cx="27" cy="18" r="1"/><circle cx="24" cy="12" r="1"/></g><g fill-rule="nonzero" transform="translate(580 96)"><path d="m8 2h27.4615385l-.8924572-.54886782 3.5384616 7 .8924571-1.45113218h-31l1 1v-7zm0-2h-1v1 7 1h1 31 1.6259965l-.7335394-1.45113218-3.5384615-7-.2774497-.54886782h-.6150074z"/><path d="m7.9985383 13h-6-1.27099542l.29907437 1.2353072 4.6 19 .18513615.7646928h.7867849 1.4 1v-1-19-1zm0 2-1-1v19l1-1h-1.4l.97192105.7646928-4.6-19-.97192105 1.2353072z"/><path d="m8 9h40l-1-1v25l1-1h-40l1 1v-25zm0-2h-1v1 25 1h1 40 1v-1-25-1h-1z"/></g><g fill-rule="nonzero" transform="translate(25 194)"><path d="m1 2h12l-.7071068-.29289322 12 12.00000002-.2928932-.7071068v19l1-1h-24l1 1v-31zm0-2h-1v1 31 1h1 24 1v-1-19-.4142136l-.2928932-.2928932-12-11.99999998-.2928932-.29289322h-.4142136z"/><path d="m12 2v12 1h1 12.0415946v-2h-12.0415946l1 1v-12z"/></g><g transform="translate(513 211)"><path d="m1 2h30l-1-1v40l1-1h-30l1 1v-40zm0-2h-1v1 40 1h1 30 1v-1-40-1h-1z" fill-rule="nonzero"/><path d="m1 2h30l-1-1v32l1-1h-30l1 1v-32zm0-2h-1v1 32 1h1 30 1v-1-32-1h-1z" fill-rule="nonzero"/><path d="m7 9h17v2h-17z"/><path d="m7 16h17v2h-17z"/><path d="m4 36h27v2h-27z"/></g><g transform="translate(694 110)"><path d="m1 2h30l-1-1v40l1-1h-30l1 1v-40zm0-2h-1v1 40 1h1 30 1v-1-40-1h-1z" fill-rule="nonzero"/><path d="m2 8h28v2h-28z"/><path d="m2 8h28v2h-28z"/><path d="m2 16h28v2h-28z"/><path d="m2 24h28v2h-28z"/><path d="m2 32h28v2h-28z"/></g><g transform="translate(490 136)"><path d="m2 4.99005301c0-1.65182165 1.33799125-2.99005301 2.99017859-2.99005301h28.01964281c1.6522495 0 2.9901786 1.33739727 2.9901786 2.99005301v16.01989399c0 1.6518216-1.3379913 2.990053-2.9901786 2.990053h-28.01964281c-1.65224952 0-2.99017859-1.3373973-2.99017859-2.990053zm-2 0v16.01989399c0 2.7574033 2.23353752 4.990053 4.99017859 4.990053h28.01964281c2.7568372 0 4.9901786-2.2337422 4.9901786-4.990053v-16.01989399c0-2.75740328-2.2335375-4.99005301-4.9901786-4.99005301h-28.01964281c-2.75683718 0-4.99017859 2.23374219-4.99017859 4.99005301z" fill-rule="nonzero"/><path d="m1 6h36v2h-36z"/><path d="m1 12h36v2h-36z"/></g><g fill-rule="nonzero" transform="translate(386 49)"><path d="m21.1213203 22.9497475 2.8284272-2.8284272h-1.4142136l8.4811387 8.4811387c.3955853.3955853.3973443 1.0251546.0041427 1.4183563-.3903569.3903568-1.0246759.3895376-1.4183563-.0041427l-8.4811387-8.4811387zm-1.4142135-1.4142136-.7071068.7071068.7071068.7071068 8.4811387 8.4811386c1.1739123 1.1739124 3.0745591 1.176367 4.2467833.0041427 1.1760249-1.1760248 1.1707275-3.0719131-.0041427-4.2467833l-8.4811386-8.4811387-.7071068-.7071068-.7071068.7071068z"/><path d="m13 26c7.1797017 0 13-5.8202983 13-13 0-7.17970175-5.8202983-13-13-13-7.17970175 0-13 5.82029825-13 13 0 7.1797017 5.82029825 13 13 13zm0-2c-6.07513225 0-11-4.9248678-11-11 0-6.07513225 4.92486775-11 11-11 6.0751322 0 11 4.92486775 11 11 0 6.0751322-4.9248678 11-11 11z"/><path d="m10.6018624 4.03625536c-3.87146044 1.06791682-6.6018624 4.60246894-6.6018624 8.67671214 0 .5522848.44771525 1 1 1s1-.4477152 1-1c0-3.16877956 2.12417811-5.91856451 5.133687-6.74871768.532401-.14685929.8449442-.69750853.6980849-1.2299095-.1468592-.53240097-.6975085-.84494425-1.2299095-.69808496z"/></g><g fill-rule="nonzero" transform="translate(78 240)"><path d="m5 19h30l-1-1v30l1-1h-30l1 1v-30zm0-2h-1v1 30 1h1 30 1v-1-30-1h-1z"/><path d="m12 25.9925398c0-1.0985564.8969077-1.9925398 2-1.9925398 1.0999211 0 2 .9005596 2 1.9925398v12.0149204c0 1.0985564-.8969077 1.9925398-2 1.9925398-1.0999211 0-2-.9005596-2-1.9925398zm-2 0v12.0149204c0 2.1963107 1.7952702 3.9925398 4 3.9925398 2.2062023 0 4-1.7879491 4-3.9925398v-12.0149204c0-2.1963107-1.7952702-3.9925398-4-3.9925398-2.2062023 0-4 1.7879491-4 3.9925398z"/><path d="m24 25.9925398c0-1.0985564.8969077-1.9925398 2-1.9925398 1.0999211 0 2 .9005596 2 1.9925398v12.0149204c0 1.0985564-.8969077 1.9925398-2 1.9925398-1.0999211 0-2-.9005596-2-1.9925398zm-2 0v12.0149204c0 2.1963107 1.7952702 3.9925398 4 3.9925398 2.2062023 0 4-1.7879491 4-3.9925398v-12.0149204c0-2.1963107-1.7952702-3.9925398-4-3.9925398-2.2062023 0-4 1.7879491-4 3.9925398z"/><path d="m1 10h38l-1-1v9l1-1h-38l1 1v-9zm0-2h-1v1 9 1h1 38 1v-1-9-1h-1z"/><path d="m12 4.00166547c0-1.10096271.9006838-2.00166547 1.9925398-2.00166547h12.0149204c1.1016975 0 1.9925398.89255721 1.9925398 2.00166547v4.99833453l1-1h-18l1 1zm-2 0v4.99833453 1h1 18 1v-1-4.99833453c0-2.21281761-1.7854108-4.00166547-3.9925398-4.00166547h-12.0149204c-2.196435 0-3.9925398 1.7961427-3.9925398 4.00166547z"/></g><g transform="translate(89 35)"><path d="m1 16h28l-1-1v22l1-1h-28l1 1v-22zm0-2h-1v1 22 1h1 28 1v-1-22-1h-1z" fill-rule="nonzero"/><path d="m8 25h14v2h-14z"/><path d="m8 8c0-3.31005276 2.6906227-6 5.994557-6h2.010886c3.3076416 0 5.994557 2.69109361 5.994557 6v7l1-1h-16l1 1zm-2 0v7 1h1 16 1v-1-7c0-4.41278082-3.5816496-8-7.994557-8h-2.010886c-4.40839135 0-7.994557 3.58526531-7.994557 8z" fill-rule="nonzero"/></g><g transform="translate(103 166)"><g fill-rule="nonzero"><path d="m2 6.00564575c0-2.21329008 1.79167687-4.00564575 4.00564575-4.00564575h25.98870845c2.2132901 0 4.0056458 1.79167687 4.0056458 4.00564575v25.98870845c0 2.2132901-1.7916769 4.0056458-4.0056458 4.0056458h-25.98870845c-2.21329008 0-4.00564575-1.7916769-4.00564575-4.0056458zm-2 0v25.98870845c0 3.3187081 2.68795573 6.0056458 6.00564575 6.0056458h25.98870845c3.3187081 0 6.0056458-2.6879557 6.0056458-6.0056458v-25.98870845c0-3.31870801-2.6879557-6.00564575-6.0056458-6.00564575h-25.98870845c-3.31870801 0-6.00564575 2.68795573-6.00564575 6.00564575z"/><path d="m8 13c0-1.6551292 1.34591478-3 3-3 1.6551292 0 3 1.3459148 3 3 0 1.6551292-1.3459148 3-3 3-1.65512918 0-3-1.3459148-3-3zm-2 0c0 2.7583075 2.23995377 5 5 5 2.7583075 0 5-2.2399538 5-5 0-2.7583075-2.2399538-5-5-5-2.75830747 0-5 2.2399538-5 5z"/><path d="m8 25c0-1.6551292 1.34591478-3 3-3 1.6551292 0 3 1.3459148 3 3 0 1.6551292-1.3459148 3-3 3-1.65512918 0-3-1.3459148-3-3zm-2 0c0 2.7583075 2.23995377 5 5 5 2.7583075 0 5-2.2399538 5-5 0-2.7583075-2.2399538-5-5-5-2.75830747 0-5 2.2399538-5 5z"/></g><path d="m19 12h12v2h-12z"/><path d="m19 24h12v2h-12z"/></g><g transform="translate(11 97)"><path d="m1 2h62l-1-1v34l1-1h-62l1 1v-34zm0-2h-1v1 34 1h1 62 1v-1-34-1h-1z" fill-rule="nonzero"/><path d="m32 31c7.1797017 0 13-5.8202983 13-13s-5.8202983-13-13-13-13 5.8202983-13 13 5.8202983 13 13 13zm0-2c-6.0751322 0-11-4.9248678-11-11s4.9248678-11 11-11 11 4.9248678 11 11-4.9248678 11-11 11z" fill-rule="nonzero"/><path d="m31.668 14.772c.938 0 1.218.448 1.344 1.33l1.876-.224c-.112-1.736-1.134-2.478-2.408-2.632v-1.246h-1.778v1.26c-1.344.294-2.422 1.26-2.422 2.814 0 2.03 1.484 2.548 2.828 2.926 1.008.294 1.932.49 1.932 1.428 0 .784-.588 1.134-1.47 1.134-1.232 0-1.568-.56-1.722-1.596l-1.848.35c.224 1.974 1.344 2.646 2.59 2.8v1.12h1.792v-1.12c1.526-.266 2.73-1.218 2.73-2.982 0-2.03-1.498-2.506-2.884-2.884-1.162-.294-1.806-.644-1.806-1.484 0-.574.364-.994 1.246-.994z"/><path d="m48 17h10v2h-10z"/><path d="m6 17h10v2h-10z"/><path d="m8 9h10v2h-10z"/><path d="m46 9h10v2h-10z"/><path d="m8 25h10v2h-10z"/><path d="m46 25h10v2h-10z"/></g><g transform="translate(292 60)"><path d="m21 42c11.5979797 0 21-9.4020203 21-21 0-11.59797975-9.4020203-21-21-21-11.59797975 0-21 9.40202025-21 21 0 11.5979797 9.40202025 21 21 21zm0-2c-10.4934102 0-19-8.5065898-19-19s8.5065898-19 19-19 19 8.5065898 19 19-8.5065898 19-19 19z" fill-rule="nonzero"/><path d="m16 16v5h12v2h-14v-7z" transform="matrix(.70710678 -.70710678 .70710678 .70710678 -7.637825 20.56066)"/></g><g fill-rule="nonzero" transform="translate(195 120)"><path d="m1 2h32l-1-1v22l1-1h-32l1 1v-22zm0-2h-1v1 22 1h1 32 1v-1-22-1h-1z"/><path d="m23.4472136 12.8944272 10-5.00000001-1.4472136-.89442719v14l1.6689647-.7432941-10-9zm-.8944272-1.7888544-1.3123553.6561776 1.0906042.9815437 10 9 1.6689647 1.5020683v-2.2453624-14-1.61803399l-1.4472136.7236068z"/><path d="m11.4472136 11.1036117-10-5.00000002-1.4472136-.7236068v1.61803399 14.00000003 2.2453624l1.66896473-1.5020683 9.99999997-9 1.0906042-.9815437zm-.8944272 1.7888544-.2217511-1.6377214-10.00000003 9 1.66896473.7432942v-14.00000003l-1.44721359.89442719z"/><path d="m2 7v-6l-1 1h32l-1-1v6l.5527864-.89442719-16 7.99999999h.8944272l-16-7.99999999zm-2 0v.61803399l.55278641.2763932 15.99999999 8.00000001.4472136.2236068.4472136-.2236068 16-8.00000001.5527864-.2763932v-.61803399-6-1h-1-32-1v1z"/></g><g transform="translate(477 41)"><path d="m2 34c0-12.7035746 10.2955617-23 23-23 12.7035746 0 23 10.2955617 23 23 0 12.7035746-10.2955617 23-23 23-12.7035746 0-23-10.2955617-23-23zm-2 0c0 13.8090454 11.1918934 25 25 25 13.8090454 0 25-11.1918934 25-25 0-13.8090454-11.1918934-25-25-25-13.8090454 0-25 11.1918934-25 25z" fill-rule="nonzero"/><path d="m21 3.5c0-.82460109.6773824-1.5 1.5009863-1.5h6.9980274c.8329899 0 1.5009863.66595701 1.5009863 1.5 0 .82460109-.6773824 1.5-1.5009863 1.5h-6.9980274c-.8329899 0-1.5009863-.66595701-1.5009863-1.5zm-2 0c0 1.93998376 1.5647935 3.5 3.5009863 3.5h6.9980274c1.9268626 0 3.5009863-1.56951436 3.5009863-3.5 0-1.93998376-1.5647935-3.5-3.5009863-3.5h-6.9980274c-1.9268626 0-3.5009863 1.56951436-3.5009863 3.5z" fill-rule="nonzero"/><path d="m25 6h2v4h-2z"/><path d="m23 34c0-1.1032323.8974639-2 2-2 1.1032323 0 2 .8974639 2 2 0 1.1032323-.8974639 2-2 2-1.1032323 0-2-.8974639-2-2zm-2 0c0 2.2067584 1.7918507 4 4 4 2.2067584 0 4-1.7918507 4-4 0-2.2067584-1.7918507-4-4-4-2.2067584 0-4 1.7918507-4 4z" fill-rule="nonzero"/><rect height="15" rx="1" transform="matrix(.8660254 -.5 .5 .8660254 -10.070508 13.416352)" width="2" x="19" y="18"/><g fill-rule="nonzero"><path d="m11.4258259 23.300032c-2.81809729 2.8752899-4.4258259 6.7317749-4.4258259 10.8394667 0 1.5738103.23511518 3.117165.6924023 4.5919592.16356376.5275086.72378862.8225442 1.25129724.6589805.52750861-.1635638.8225442-.7237887.65898044-1.2512973-.39797905-1.28352-.60267998-2.627228-.60267998-3.9996424 0-3.5788793 1.3988881-6.934415 3.8541738-9.4395301.3865818-.3944274.3802217-1.0275604-.0142057-1.4141422-.3944273-.3865818-1.0275604-.3802217-1.4141422.0142056z"/><path d="m14.385826 28.300032c-1.518858 1.5496829-2.385826 3.6292931-2.385826 5.843192 0 .8479289.1267547 1.6799783.3733241 2.4751878.1635637.5275087.7237886.8225442 1.2512972.6589805.5275086-.1635638.8225442-.7237886.6589804-1.2512973-.1872613-.6039353-.2836017-1.236338-.2836017-1.882871 0-1.6850863.6581274-3.2637473 1.8141738-4.4432554.3865818-.3944274.3802218-1.0275604-.0142056-1.4141422s-1.0275604-.3802217-1.4141422.0142056z"/></g></g><g transform="translate(637 46)"><path d="m2 5.99767164c0-2.20720799 1.79088796-3.99767164 3.99767164-3.99767164h16.00465676c2.2072079 0 3.9976716 1.79088796 3.9976716 3.99767164v16.00465676c0 2.2072079-1.790888 3.9976716-3.9976716 3.9976716h-16.00465676c-2.20720799 0-3.99767164-1.790888-3.99767164-3.9976716zm-2 0v16.00465676c0 3.3112471 2.68578805 5.9976716 5.99767164 5.9976716h16.00465676c3.3112471 0 5.9976716-2.6857881 5.9976716-5.9976716v-16.00465676c0-3.3112471-2.6857881-5.99767164-5.9976716-5.99767164h-16.00465676c-3.3112471 0-5.99767164 2.68578805-5.99767164 5.99767164z" fill-rule="nonzero"/><path d="m13 9h2v11h-2z"/><path d="m9 13h11v2h-11z"/></g><g fill-rule="nonzero" transform="translate(642 207)"><path d="m2 6c0-2.20955937 1.79016435-4 4-4h22c2.2095594 0 4 1.79016435 4 4v22c0 2.2095594-1.7901643 4-4 4h-22c-2.20955937 0-4-1.7901643-4-4zm-2 0v22c0 3.3144742 2.68594021 6 6 6h22c3.3144742 0 6-2.6859402 6-6v-22c0-3.31447425-2.6859402-6-6-6h-22c-3.31447425 0-6 2.68594021-6 6z"/><path d="m2.06153731 19.112514 7.05371094-4.4174805-1.06153731-1.6950335-7.05371094 4.4174805z"/><path d="m26.108694 22.7939658 7.7011719-5.1293945-1.108694-1.6645713-7.7011719 5.1293945z"/><path d="m12 14.3196653 7.0537109 8.0327148 1.5028253-1.3196653-7.053711-8.0327148z"/><path d="m11 16c2.209139 0 4-1.790861 4-4s-1.790861-4-4-4-4 1.790861-4 4 1.790861 4 4 4zm0-2c-1.1045695 0-2-.8954305-2-2s.8954305-2 2-2 2 .8954305 2 2-.8954305 2-2 2z"/><path d="m22 28c2.209139 0 4-1.790861 4-4s-1.790861-4-4-4-4 1.790861-4 4 1.790861 4 4 4zm0-2c-1.1045695 0-2-.8954305-2-2s.8954305-2 2-2 2 .8954305 2 2-.8954305 2-2 2z"/></g><g transform="translate(368 111)"><path d="m30 2h4l-1-1v43l1-1h-33l1 1v-43l-1 1h4l-1-1c0 1.65685425 1.34314575 3 3 3s3-1.34314575 3-3l-1 1h3l-1-1c0 1.65685425 1.3431458 3 3 3s3-1.34314575 3-3l-1 1h3l-1-1c0 1.65685425 1.3431458 3 3 3s3-1.34314575 3-3l-1 1h3l-1-1c0 1.65685425 1.3431458 3 3 3s3-1.34314575 3-3zm0-2h-1v1c0 .55228475-.4477153 1-1 1s-1-.44771525-1-1v-1h-1-3-1v1c0 .55228475-.4477153 1-1 1s-1-.44771525-1-1v-1h-1-3-1v1c0 .55228475-.4477153 1-1 1s-1-.44771525-1-1v-1h-1-3-1v1c0 .55228475-.44771525 1-1 1s-1-.44771525-1-1v-1h-1-4-1v1 43 1h1 33 1v-1-43-1h-1z" fill-rule="nonzero"/><path d="m7 10h21v2h-21z"/><path d="m7 18h21v2h-21z"/><path d="m7 26h21v2h-21z"/><path d="m17 34h11v2h-11z"/></g><g transform="translate(170 203)"><path d="m1 2h70l-1-1v28l1-1h-70l1 1v-28zm0-2h-1v1 28 1h1 70 1v-1-28-1h-1z" fill-rule="nonzero"/><path d="m43 5h2v18h-2z"/><path d="m11.338 8.558-4.338 13.032h2.142l1.188-3.564h4.734l1.224 3.564h2.304l-4.572-13.032zm3.24 7.704h-3.834l1.908-5.76h.036zm7.524 5.328.126-.774.036-.018c.63.558 1.476 1.008 2.628 1.008 2.178 0 3.888-1.458 3.888-5.094 0-3.402-1.476-4.626-3.402-4.626-1.278 0-2.214.378-3.006 1.098v-5.184h-2.034v13.59zm.306-6.822c.486-.432 1.35-.99 2.232-.99 1.44 0 1.998 1.026 1.998 2.97 0 2.142-.63 3.33-2.142 3.33-.918 0-1.71-.504-2.088-.792zm12.312 7.038c1.98 0 3.672-.954 3.96-3.186l-1.8-.36c-.216 1.296-.9 1.854-2.052 1.854-1.296 0-2.304-.774-2.304-3.294 0-2.466 1.152-3.078 2.358-3.078 1.224 0 1.71.792 1.854 2.016l1.908-.27c-.162-2.214-1.602-3.402-3.672-3.402-2.934 0-4.608 1.728-4.608 4.968 0 2.79 1.278 4.752 4.356 4.752z"/></g><g transform="translate(277 135)"><path d="m2 6.00365614c0-2.21001453 1.79439451-4.00365614 4.00365614-4.00365614h31.99268776c2.2100145 0 4.0036561 1.79439451 4.0036561 4.00365614v31.99268776c0 2.2100145-1.7943945 4.0036561-4.0036561 4.0036561h-31.99268776c-2.21001453 0-4.00365614-1.7943945-4.00365614-4.0036561zm-2 0v31.99268776c0 3.3136432 2.68888417 6.0036561 6.00365614 6.0036561h31.99268776c3.3136432 0 6.0036561-2.6888842 6.0036561-6.0036561v-31.99268776c0-3.31364328-2.6888842-6.00365614-6.0036561-6.00365614h-31.99268776c-3.31364328 0-6.00365614 2.68888417-6.00365614 6.00365614z" fill-rule="nonzero"/><path d="m0 11h42v2h-42z"/><path d="m12 30.44c.32 2.54 2.08 3.54 4.42 3.54 2.9 0 4.84-1.7 4.84-4.32 0-2.18-1.12-3.28-3.04-3.66v-.06c1.28-.38 2.76-1.42 2.76-3.48 0-2.14-1.4-3.46-4.06-3.46-2.18 0-4.08.84-4.56 3.38l2 .42c.3-1.28.8-1.94 2.32-1.94 1.54 0 2.02.8 2.02 1.9 0 1.52-1.06 2.5-2.98 2.5h-.92v1.82h1.34c1.7 0 2.76.64 2.76 2.48 0 1.82-1.12 2.54-2.46 2.54-1.68 0-2.14-.78-2.36-2.06zm18.7622223 3.3v-14.48h-1.44c-.94 1.04-2.24 1.52-4.08 1.68l.14 1.86c.66 0 2.42-.28 3.1-.64v11.58z"/></g><g fill-rule="nonzero" transform="translate(416 173)"><path d="m5.2033969 19.0222434c1.51083654-7.4429374 7.3759091-13.30800996 14.8188465-14.8188465l-1.1989322-.98001325v7.22692625l.6925966-.95157926c-4.2681467 1.37880536-7.6383718 4.74903046-9.0171772 9.01717716l.9515793-.6925966h-7.22692625zm-1.96002651-.3978644-.24337039 1.1989322h1.22338365 7.22692625.7278391l.2237402-.6925966c1.1812673-3.6566595 4.0721659-6.5475581 7.7288254-7.7288254l.6925966-.2237402v-.7278391-7.22692625-1.22338365l-1.1989322.24337039c-8.2301057 1.67062329-14.71038532 8.15090291-16.38100861 16.38100861z"/><path d="m29.2033969 19.0222434c1.5108365-7.4429374 7.3759091-13.30800996 14.8188465-14.8188465l-1.1989322-.98001325v7.22692625l.6925966-.95157926c-4.2681467 1.37880536-7.6383718 4.74903046-9.0171772 9.01717716l.9515793-.6925966h-7.2269263zm-1.9600265-.3978644-.2433704 1.1989322h1.2233836 7.2269263.7278391l.2237402-.6925966c1.1812673-3.6566595 4.0721659-6.5475581 7.7288254-7.7288254l.6925966-.2237402v-.7278391-7.22692625-1.22338365l-1.1989322.24337039c-8.2301057 1.67062329-14.7103853 8.15090291-16.3810086 16.38100861z" transform="matrix(-1 0 0 1 71.823312 0)"/><path d="m5.2033969 43.0222434c1.51083654-7.4429374 7.3759091-13.30801 14.8188465-14.8188465l-1.1989322-.9800133v7.2269263l.6925966-.9515793c-4.2681467 1.3788054-7.6383718 4.7490305-9.0171772 9.0171772l.9515793-.6925966h-7.22692625zm-1.96002651-.3978644-.24337039 1.1989322h1.22338365 7.22692625.7278391l.2237402-.6925966c1.1812673-3.6566595 4.0721659-6.5475581 7.7288254-7.7288254l.6925966-.2237402v-.7278391-7.2269263-1.2233836l-1.1989322.2433704c-8.2301057 1.6706233-14.71038532 8.1509029-16.38100861 16.3810086z" transform="matrix(1 0 0 -1 0 69.823312)"/><path d="m29.2033969 43.0222434c1.5108365-7.4429374 7.3759091-13.30801 14.8188465-14.8188465l-1.1989322-.9800133v7.2269263l.6925966-.9515793c-4.2681467 1.3788054-7.6383718 4.7490305-9.0171772 9.0171772l.9515793-.6925966h-7.2269263zm-1.9600265-.3978644-.2433704 1.1989322h1.2233836 7.2269263.7278391l.2237402-.6925966c1.1812673-3.6566595 4.0721659-6.5475581 7.7288254-7.7288254l.6925966-.2237402v-.7278391-7.2269263-1.2233836l-1.1989322.2433704c-8.2301057 1.6706233-14.7103853 8.1509029-16.3810086 16.3810086z" transform="matrix(-1 0 0 -1 71.823312 69.823312)"/><path d="m21 3.99715203c0-1.10459257.8929015-1.99715203 2.0016655-1.99715203h1.996669c1.1059244 0 2.0016655.89434309 2.0016655 1.99715203v6.00569597c0 1.1045925-.8929015 1.997152-2.0016655 1.997152h-1.996669c-1.1059244 0-2.0016655-.8943431-2.0016655-1.997152zm-2 0v6.00569597c0 2.2080783 1.7918703 3.997152 4.0016655 3.997152h1.996669c2.213162 0 4.0016655-1.7878184 4.0016655-3.997152v-6.00569597c0-2.20807833-1.7918703-3.99715203-4.0016655-3.99715203h-1.996669c-2.213162 0-4.0016655 1.78781837-4.0016655 3.99715203z"/><path d="m21 36.997152c0-1.1045925.8929015-1.997152 2.0016655-1.997152h1.996669c1.1059244 0 2.0016655.8943431 2.0016655 1.997152v6.005696c0 1.1045925-.8929015 1.997152-2.0016655 1.997152h-1.996669c-1.1059244 0-2.0016655-.8943431-2.0016655-1.997152zm-2 0v6.005696c0 2.2080783 1.7918703 3.997152 4.0016655 3.997152h1.996669c2.213162 0 4.0016655-1.7878184 4.0016655-3.997152v-6.005696c0-2.2080783-1.7918703-3.997152-4.0016655-3.997152h-1.996669c-2.213162 0-4.0016655 1.7878184-4.0016655 3.997152z"/><path d="m4 19.997152c0-1.1045925.89290153-1.997152 2.00166547-1.997152h1.99666906c1.1059244 0 2.00166547.8943431 2.00166547 1.997152v6.005696c0 1.1045925-.89290153 1.997152-2.00166547 1.997152h-1.99666906c-1.1059244 0-2.00166547-.8943431-2.00166547-1.997152zm-2 0v6.005696c0 2.2080783 1.79187025 3.997152 4.00166547 3.997152h1.99666906c2.21316197 0 4.00166547-1.7878184 4.00166547-3.997152v-6.005696c0-2.2080783-1.7918703-3.997152-4.00166547-3.997152h-1.99666906c-2.21316193 0-4.00166547 1.7878184-4.00166547 3.997152z" transform="matrix(0 -1 1 0 -16 30)"/><path d="m38 19.997152c0-1.1045925.8929015-1.997152 2.0016655-1.997152h1.996669c1.1059244 0 2.0016655.8943431 2.0016655 1.997152v6.005696c0 1.1045925-.8929015 1.997152-2.0016655 1.997152h-1.996669c-1.1059244 0-2.0016655-.8943431-2.0016655-1.997152zm-2 0v6.005696c0 2.2080783 1.7918703 3.997152 4.0016655 3.997152h1.996669c2.213162 0 4.0016655-1.7878184 4.0016655-3.997152v-6.005696c0-2.2080783-1.7918703-3.997152-4.0016655-3.997152h-1.996669c-2.213162 0-4.0016655 1.7878184-4.0016655 3.997152z" transform="matrix(0 -1 1 0 18 64)"/></g></g></svg>